<?xml version="1.0" encoding="utf-8"?>
<!-- Generator: Adobe Illustrator 27.9.4, SVG Export Plug-In . SVG Version: 9.03 Build 54784)  -->
<svg version="1.1" id="Capa_1" xmlns="http://www.w3.org/2000/svg" xmlns:xlink="http://www.w3.org/1999/xlink" x="0px" y="0px"
	 viewBox="0 0 530 132" style="enable-background:new 0 0 530 132;" xml:space="preserve">
<style type="text/css">
	.st0{fill:#ebecfa;stroke:#ebecfa;stroke-width:2.0615;stroke-miterlimit:10;}
	.st1{fill:#0F1417;}
</style>
<g>
	<g>
		<path class="st0" d="M477.15,116.61H51.96c-22.32,0-40.41-18.09-40.41-40.41V56.79c0-22.32,18.09-40.41,40.41-40.41l425.19,0
			c22.32,0,40.41,18.09,40.41,40.41v19.41C517.56,98.52,499.47,116.61,477.15,116.61z"/>
	</g>
</g>
<g>
	<path class="st1" d="M75.79,75.64h-8.85V50.67h8.93c2.51,0,4.67,0.5,6.49,1.49c1.81,1,3.21,2.42,4.19,4.29s1.47,4.09,1.47,6.68
		c0,2.6-0.49,4.84-1.47,6.71c-0.98,1.87-2.38,3.3-4.21,4.3C80.51,75.14,78.32,75.64,75.79,75.64z M72.22,71.12h3.35
		c1.56,0,2.88-0.28,3.94-0.83s1.87-1.42,2.41-2.6c0.54-1.17,0.81-2.69,0.81-4.55c0-1.85-0.27-3.35-0.81-4.52
		c-0.54-1.17-1.34-2.03-2.41-2.58s-2.38-0.83-3.94-0.83h-3.37V71.12z"/>
	<path class="st1" d="M100.27,76.01c-1.89,0-3.53-0.4-4.91-1.21c-1.38-0.81-2.44-1.94-3.19-3.39c-0.75-1.45-1.12-3.14-1.12-5.05
		c0-1.93,0.37-3.63,1.12-5.08c0.75-1.45,1.81-2.58,3.19-3.39c1.38-0.81,3.01-1.21,4.91-1.21s3.53,0.41,4.91,1.21
		c1.38,0.81,2.44,1.94,3.19,3.39c0.75,1.45,1.12,3.14,1.12,5.08c0,1.92-0.37,3.6-1.12,5.05c-0.75,1.45-1.81,2.58-3.19,3.39
		C103.8,75.61,102.17,76.01,100.27,76.01z M100.3,71.99c0.86,0,1.58-0.25,2.16-0.74s1.01-1.16,1.31-2.02
		c0.3-0.85,0.45-1.83,0.45-2.92c0-1.09-0.15-2.06-0.45-2.91c-0.3-0.85-0.73-1.53-1.31-2.02s-1.3-0.74-2.16-0.74
		c-0.87,0-1.6,0.25-2.19,0.74c-0.59,0.5-1.03,1.17-1.33,2.02c-0.3,0.85-0.45,1.83-0.45,2.91c0,1.09,0.15,2.06,0.45,2.92
		c0.3,0.85,0.74,1.53,1.33,2.02C98.7,71.74,99.43,71.99,100.3,71.99z"/>
	<path class="st1" d="M116.11,75.64l-5.1-18.73h5.26l2.9,12.58h0.17l3.02-12.58h5.16l3.07,12.51h0.16l2.85-12.51h5.24l-5.08,18.73
		h-5.5l-3.22-11.78h-0.23l-3.22,11.78H116.11z"/>
	<path class="st1" d="M146.8,64.82v10.83h-5.19V56.92h4.95v3.3h0.22c0.41-1.09,1.11-1.95,2.08-2.59c0.98-0.64,2.16-0.96,3.55-0.96
		c1.3,0,2.43,0.29,3.4,0.85c0.97,0.57,1.72,1.38,2.26,2.43c0.54,1.05,0.8,2.31,0.8,3.76v11.92h-5.19v-11
		c0.01-1.15-0.28-2.04-0.88-2.69s-1.41-0.97-2.45-0.97c-0.7,0-1.31,0.15-1.85,0.45c-0.53,0.3-0.95,0.74-1.24,1.31
		C146.96,63.32,146.81,64.01,146.8,64.82z"/>
	<path class="st1" d="M168.15,50.67v24.97h-5.19V50.67H168.15z"/>
	<path class="st1" d="M180.76,76.01c-1.89,0-3.53-0.4-4.91-1.21c-1.38-0.81-2.44-1.94-3.19-3.39c-0.75-1.45-1.12-3.14-1.12-5.05
		c0-1.93,0.37-3.63,1.12-5.08c0.75-1.45,1.81-2.58,3.19-3.39c1.38-0.81,3.01-1.21,4.91-1.21s3.53,0.41,4.91,1.21
		c1.38,0.81,2.44,1.94,3.19,3.39c0.75,1.45,1.12,3.14,1.12,5.08c0,1.92-0.37,3.6-1.12,5.05c-0.75,1.45-1.81,2.58-3.19,3.39
		C184.29,75.61,182.65,76.01,180.76,76.01z M180.78,71.99c0.86,0,1.58-0.25,2.16-0.74s1.01-1.16,1.31-2.02
		c0.3-0.85,0.45-1.83,0.45-2.92c0-1.09-0.15-2.06-0.45-2.91c-0.3-0.85-0.73-1.53-1.31-2.02s-1.3-0.74-2.16-0.74
		c-0.87,0-1.6,0.25-2.19,0.74c-0.59,0.5-1.03,1.17-1.33,2.02c-0.3,0.85-0.45,1.83-0.45,2.91c0,1.09,0.15,2.06,0.45,2.92
		c0.3,0.85,0.74,1.53,1.33,2.02C179.18,71.74,179.91,71.99,180.78,71.99z"/>
	<path class="st1" d="M198.7,76c-1.19,0-2.26-0.21-3.19-0.63s-1.67-1.04-2.21-1.87c-0.54-0.83-0.81-1.86-0.81-3.09
		c0-1.04,0.19-1.92,0.57-2.62c0.38-0.71,0.9-1.28,1.56-1.71c0.66-0.43,1.41-0.76,2.25-0.98c0.84-0.22,1.73-0.37,2.65-0.46
		c1.09-0.11,1.97-0.22,2.63-0.32c0.67-0.1,1.15-0.25,1.45-0.46c0.3-0.2,0.45-0.5,0.45-0.9v-0.07c0-0.77-0.24-1.37-0.73-1.79
		s-1.17-0.63-2.05-0.63c-0.93,0-1.68,0.21-2.23,0.62s-0.92,0.92-1.1,1.54l-4.8-0.39c0.24-1.14,0.72-2.12,1.44-2.96
		s1.64-1.48,2.77-1.93c1.13-0.45,2.45-0.68,3.94-0.68c1.04,0,2.04,0.12,2.99,0.37c0.96,0.24,1.8,0.62,2.55,1.13
		c0.74,0.51,1.33,1.17,1.76,1.97c0.43,0.8,0.65,1.76,0.65,2.87v12.63h-4.93v-2.6h-0.15c-0.3,0.58-0.7,1.1-1.21,1.54
		c-0.5,0.44-1.11,0.79-1.82,1.04C200.45,75.87,199.63,76,198.7,76z M200.19,72.41c0.76,0,1.44-0.15,2.02-0.46
		c0.59-0.3,1.04-0.72,1.38-1.24c0.33-0.52,0.5-1.11,0.5-1.77v-1.99c-0.16,0.11-0.38,0.2-0.66,0.29c-0.28,0.08-0.6,0.16-0.95,0.23
		c-0.35,0.07-0.7,0.13-1.05,0.18c-0.35,0.05-0.67,0.1-0.95,0.14c-0.61,0.09-1.14,0.23-1.6,0.43c-0.46,0.2-0.81,0.46-1.06,0.79
		s-0.38,0.74-0.38,1.23c0,0.71,0.26,1.25,0.77,1.62C198.74,72.23,199.4,72.41,200.19,72.41z"/>
	<path class="st1" d="M220.19,75.95c-1.42,0-2.71-0.37-3.86-1.1c-1.15-0.74-2.06-1.82-2.73-3.25s-1.01-3.2-1.01-5.29
		c0-2.15,0.35-3.93,1.04-5.36c0.69-1.43,1.61-2.5,2.76-3.21c1.15-0.71,2.41-1.07,3.79-1.07c1.05,0,1.92,0.18,2.63,0.53
		c0.7,0.35,1.27,0.79,1.71,1.32s0.77,1.04,0.99,1.54h0.16v-9.39h5.18v24.97h-5.12v-3h-0.22c-0.24,0.52-0.59,1.03-1.03,1.54
		s-1.02,0.93-1.72,1.26C222.05,75.78,221.2,75.95,220.19,75.95z M221.83,71.82c0.84,0,1.55-0.23,2.13-0.69
		c0.58-0.46,1.03-1.1,1.34-1.93c0.31-0.83,0.47-1.8,0.47-2.91c0-1.11-0.15-2.08-0.46-2.9c-0.31-0.82-0.76-1.45-1.34-1.9
		s-1.3-0.67-2.13-0.67c-0.85,0-1.57,0.23-2.16,0.7c-0.59,0.46-1.03,1.11-1.33,1.93c-0.3,0.82-0.45,1.77-0.45,2.85
		c0,1.09,0.15,2.05,0.46,2.88c0.3,0.83,0.75,1.48,1.33,1.95C220.26,71.58,220.98,71.82,221.83,71.82z"/>
	<path class="st1" d="M242.21,55.03v-4.35h20.51v4.35h-7.65v20.62h-5.22V55.03H242.21z"/>
	<path class="st1" d="M271.74,76.01c-1.89,0-3.53-0.4-4.91-1.21c-1.38-0.81-2.44-1.94-3.19-3.39c-0.75-1.45-1.12-3.14-1.12-5.05
		c0-1.93,0.37-3.63,1.12-5.08c0.75-1.45,1.81-2.58,3.19-3.39c1.38-0.81,3.01-1.21,4.91-1.21s3.53,0.41,4.91,1.21
		c1.38,0.81,2.44,1.94,3.19,3.39c0.75,1.45,1.12,3.14,1.12,5.08c0,1.92-0.37,3.6-1.12,5.05c-0.75,1.45-1.81,2.58-3.19,3.39
		C275.27,75.61,273.63,76.01,271.74,76.01z M271.76,71.99c0.86,0,1.58-0.25,2.16-0.74s1.01-1.16,1.31-2.02
		c0.3-0.85,0.45-1.83,0.45-2.92c0-1.09-0.15-2.06-0.45-2.91c-0.3-0.85-0.73-1.53-1.31-2.02s-1.3-0.74-2.16-0.74
		c-0.87,0-1.6,0.25-2.19,0.74c-0.59,0.5-1.03,1.17-1.33,2.02c-0.3,0.85-0.45,1.83-0.45,2.91c0,1.09,0.15,2.06,0.45,2.92
		c0.3,0.85,0.74,1.53,1.33,2.02C270.16,71.74,270.89,71.99,271.76,71.99z"/>
	<path class="st1" d="M308.96,58.75c-0.17-0.59-0.41-1.12-0.72-1.58c-0.31-0.46-0.68-0.85-1.13-1.17c-0.44-0.32-0.95-0.57-1.51-0.74
		c-0.57-0.17-1.19-0.26-1.87-0.26c-1.28,0-2.4,0.32-3.36,0.95c-0.96,0.63-1.71,1.55-2.25,2.76c-0.54,1.21-0.8,2.68-0.8,4.42
		s0.26,3.22,0.79,4.44c0.53,1.22,1.28,2.15,2.24,2.79c0.97,0.64,2.11,0.96,3.43,0.96c1.19,0,2.22-0.21,3.07-0.64
		c0.85-0.43,1.5-1.03,1.95-1.81c0.45-0.78,0.68-1.7,0.68-2.77l1.07,0.16h-6.44v-3.97h10.45v3.15c0,2.19-0.46,4.08-1.39,5.65
		c-0.93,1.57-2.2,2.78-3.83,3.63c-1.63,0.85-3.49,1.27-5.58,1.27c-2.34,0-4.4-0.52-6.17-1.55c-1.77-1.04-3.15-2.51-4.14-4.43
		c-0.99-1.91-1.48-4.19-1.48-6.82c0-2.02,0.29-3.83,0.88-5.42c0.59-1.59,1.42-2.94,2.48-4.04c1.06-1.11,2.3-1.95,3.72-2.52
		c1.41-0.58,2.95-0.87,4.6-0.87c1.41,0,2.73,0.21,3.95,0.62c1.22,0.41,2.3,0.99,3.25,1.74c0.95,0.75,1.72,1.64,2.32,2.66
		c0.6,1.03,0.99,2.16,1.16,3.4H308.96z"/>
	<path class="st1" d="M326.96,76.01c-1.93,0-3.58-0.39-4.97-1.18s-2.45-1.9-3.2-3.34c-0.75-1.44-1.12-3.15-1.12-5.13
		c0-1.93,0.37-3.62,1.12-5.07c0.75-1.45,1.8-2.59,3.16-3.4c1.36-0.81,2.96-1.22,4.8-1.22c1.24,0,2.39,0.2,3.46,0.59
		c1.07,0.39,2,0.99,2.8,1.77c0.8,0.79,1.42,1.78,1.87,2.97c0.45,1.19,0.67,2.58,0.67,4.18v1.43h-15.81v-3.22h10.92
		c0-0.75-0.16-1.41-0.49-1.99c-0.33-0.58-0.77-1.03-1.35-1.36c-0.57-0.33-1.24-0.49-1.99-0.49c-0.79,0-1.49,0.18-2.09,0.54
		c-0.61,0.36-1.08,0.85-1.42,1.45c-0.34,0.61-0.52,1.28-0.52,2.02v3.06c0,0.93,0.17,1.73,0.52,2.4s0.84,1.2,1.47,1.56
		c0.63,0.37,1.39,0.55,2.26,0.55c0.58,0,1.11-0.08,1.58-0.24c0.48-0.16,0.89-0.41,1.23-0.73c0.34-0.33,0.6-0.72,0.78-1.19l4.8,0.32
		c-0.24,1.15-0.74,2.16-1.49,3.02c-0.75,0.86-1.72,1.52-2.9,2C329.87,75.77,328.51,76.01,326.96,76.01z"/>
	<path class="st1" d="M348.91,56.92v3.9h-11.28v-3.9H348.91z M340.19,52.43h5.19v17.46c0,0.48,0.07,0.85,0.22,1.12
		c0.15,0.26,0.35,0.45,0.62,0.55c0.26,0.11,0.57,0.16,0.92,0.16c0.24,0,0.49-0.02,0.73-0.07s0.43-0.08,0.56-0.1l0.82,3.87
		c-0.26,0.08-0.63,0.18-1.1,0.29c-0.47,0.11-1.04,0.18-1.72,0.2c-1.25,0.05-2.35-0.12-3.29-0.5c-0.94-0.38-1.67-0.98-2.19-1.78
		c-0.52-0.8-0.78-1.82-0.77-3.05V52.43z"/>
	<path class="st1" d="M360.35,75.64V50.67h9.85c1.89,0,3.5,0.34,4.83,1.01c1.34,0.67,2.36,1.62,3.06,2.84s1.05,2.66,1.05,4.31
		c0,1.66-0.36,3.08-1.07,4.27c-0.72,1.19-1.75,2.1-3.1,2.74c-1.35,0.63-2.99,0.95-4.91,0.95h-6.6v-4.24h5.74
		c1.01,0,1.85-0.14,2.51-0.41s1.16-0.69,1.49-1.24c0.33-0.55,0.49-1.24,0.49-2.06c0-0.83-0.16-1.53-0.49-2.1
		c-0.33-0.57-0.83-1-1.5-1.3s-1.51-0.45-2.53-0.45h-3.56v20.66H360.35z M373.83,64.28l6.21,11.36h-5.83l-6.07-11.36H373.83z"/>
	<path class="st1" d="M391,76.01c-1.93,0-3.58-0.39-4.97-1.18s-2.45-1.9-3.2-3.34c-0.75-1.44-1.12-3.15-1.12-5.13
		c0-1.93,0.37-3.62,1.12-5.07c0.75-1.45,1.8-2.59,3.16-3.4c1.36-0.81,2.96-1.22,4.8-1.22c1.24,0,2.39,0.2,3.46,0.59
		c1.07,0.39,2,0.99,2.8,1.77c0.8,0.79,1.42,1.78,1.87,2.97c0.45,1.19,0.67,2.58,0.67,4.18v1.43h-15.81v-3.22h10.92
		c0-0.75-0.16-1.41-0.49-1.99c-0.33-0.58-0.77-1.03-1.35-1.36c-0.57-0.33-1.24-0.49-1.99-0.49c-0.79,0-1.49,0.18-2.09,0.54
		c-0.61,0.36-1.08,0.85-1.42,1.45c-0.34,0.61-0.52,1.28-0.52,2.02v3.06c0,0.93,0.17,1.73,0.52,2.4s0.84,1.2,1.47,1.56
		c0.63,0.37,1.39,0.55,2.26,0.55c0.58,0,1.11-0.08,1.58-0.24c0.48-0.16,0.89-0.41,1.23-0.73c0.34-0.33,0.6-0.72,0.78-1.19l4.8,0.32
		c-0.24,1.15-0.74,2.16-1.49,3.02c-0.75,0.86-1.72,1.52-2.9,2C393.91,75.77,392.54,76.01,391,76.01z"/>
	<path class="st1" d="M408.33,76c-1.19,0-2.26-0.21-3.19-0.63s-1.67-1.04-2.21-1.87c-0.54-0.83-0.81-1.86-0.81-3.09
		c0-1.04,0.19-1.92,0.57-2.62c0.38-0.71,0.9-1.28,1.56-1.71c0.66-0.43,1.41-0.76,2.25-0.98c0.84-0.22,1.73-0.37,2.65-0.46
		c1.09-0.11,1.97-0.22,2.63-0.32c0.67-0.1,1.15-0.25,1.45-0.46c0.3-0.2,0.45-0.5,0.45-0.9v-0.07c0-0.77-0.24-1.37-0.73-1.79
		s-1.17-0.63-2.05-0.63c-0.93,0-1.68,0.21-2.23,0.62s-0.92,0.92-1.1,1.54l-4.8-0.39c0.24-1.14,0.72-2.12,1.44-2.96
		s1.64-1.48,2.77-1.93c1.13-0.45,2.45-0.68,3.94-0.68c1.04,0,2.04,0.12,2.99,0.37c0.96,0.24,1.8,0.62,2.55,1.13
		c0.74,0.51,1.33,1.17,1.76,1.97c0.43,0.8,0.65,1.76,0.65,2.87v12.63h-4.93v-2.6h-0.15c-0.3,0.58-0.7,1.1-1.21,1.54
		c-0.5,0.44-1.11,0.79-1.82,1.04C410.07,75.87,409.25,76,408.33,76z M409.81,72.41c0.76,0,1.44-0.15,2.02-0.46
		c0.59-0.3,1.04-0.72,1.38-1.24c0.33-0.52,0.5-1.11,0.5-1.77v-1.99c-0.16,0.11-0.38,0.2-0.66,0.29c-0.28,0.08-0.6,0.16-0.95,0.23
		c-0.35,0.07-0.7,0.13-1.05,0.18c-0.35,0.05-0.67,0.1-0.95,0.14c-0.61,0.09-1.14,0.23-1.6,0.43c-0.46,0.2-0.81,0.46-1.06,0.79
		s-0.38,0.74-0.38,1.23c0,0.71,0.26,1.25,0.77,1.62C408.36,72.23,409.02,72.41,409.81,72.41z"/>
	<path class="st1" d="M429.81,75.95c-1.42,0-2.71-0.37-3.86-1.1c-1.15-0.74-2.06-1.82-2.73-3.25s-1.01-3.2-1.01-5.29
		c0-2.15,0.35-3.93,1.04-5.36c0.69-1.43,1.61-2.5,2.76-3.21c1.15-0.71,2.41-1.07,3.79-1.07c1.05,0,1.92,0.18,2.63,0.53
		c0.7,0.35,1.27,0.79,1.71,1.32s0.77,1.04,0.99,1.54h0.16v-9.39h5.18v24.97h-5.12v-3h-0.22c-0.24,0.52-0.59,1.03-1.03,1.54
		s-1.02,0.93-1.72,1.26C431.67,75.78,430.82,75.95,429.81,75.95z M431.46,71.82c0.84,0,1.55-0.23,2.13-0.69
		c0.58-0.46,1.03-1.1,1.34-1.93c0.31-0.83,0.47-1.8,0.47-2.91c0-1.11-0.15-2.08-0.46-2.9c-0.31-0.82-0.76-1.45-1.34-1.9
		s-1.3-0.67-2.13-0.67c-0.85,0-1.57,0.23-2.16,0.7c-0.59,0.46-1.03,1.11-1.33,1.93c-0.3,0.82-0.45,1.77-0.45,2.85
		c0,1.09,0.15,2.05,0.46,2.88c0.3,0.83,0.75,1.48,1.33,1.95C429.88,71.58,430.6,71.82,431.46,71.82z"/>
	<path class="st1" d="M447.93,82.67c-0.66,0-1.27-0.05-1.85-0.15c-0.57-0.1-1.05-0.23-1.42-0.38l1.17-3.88
		c0.61,0.19,1.16,0.29,1.65,0.3c0.49,0.02,0.92-0.1,1.28-0.34c0.36-0.24,0.66-0.66,0.88-1.24l0.3-0.79l-6.72-19.26h5.46l3.88,13.75
		h0.2l3.91-13.75h5.5l-7.28,20.75c-0.35,1.01-0.82,1.89-1.42,2.64s-1.35,1.33-2.26,1.74C450.31,82.46,449.21,82.67,447.93,82.67z"/>
</g>
</svg>
