<?xml version="1.0" encoding="utf-8"?>
<!-- Generator: Adobe Illustrator 27.9.4, SVG Export Plug-In . SVG Version: 9.03 Build 54784)  -->
<svg version="1.1" id="Capa_1" xmlns="http://www.w3.org/2000/svg" xmlns:xlink="http://www.w3.org/1999/xlink" x="0px" y="0px"
	 viewBox="0 0 416 68" style="enable-background:new 0 0 416 68;" xml:space="preserve">
<style type="text/css">
	.st0{fill:#ebecfa;}
	.st1{fill-rule:evenodd;clip-rule:evenodd;fill:#ebecfa;}
	.st2{fill:#ebecfa;stroke:#ebecfa;stroke-width:2.0615;stroke-miterlimit:10;}
	.st3{fill-rule:evenodd;clip-rule:evenodd;fill:#0F1417;}
	.st4{fill:#0E1417;}
</style>
<g>
	<g>
		<g>
			<g>
				<path class="st0" d="M47.03,27.61c0,3.03-2.46,5.5-5.5,5.5c-3.03,0-5.5-2.46-5.5-5.5s2.46-5.5,5.5-5.5
					C44.56,22.11,47.03,24.57,47.03,27.61z"/>
				<path class="st0" d="M27.62,24.31c1.52,0,2.75-1.23,2.75-2.75s-1.23-2.75-2.75-2.75c-1.52,0-2.75,1.23-2.75,2.75
					S26.1,24.31,27.62,24.31z"/>
				<path class="st1" d="M51.37,48.01c-0.57,0.73-1.18,1.42-1.83,2.06c-0.77,0.77-1.61,1.49-2.49,2.14
					c-3.65,2.69-8.15,4.27-13.03,4.27S24.64,54.89,21,52.21c-0.88-0.65-1.71-1.36-2.49-2.14c-0.65-0.65-1.26-1.34-1.83-2.06
					c-0.23-0.3-0.45-0.6-0.67-0.9c-0.82-1.17-1.53-2.42-2.11-3.74c0-0.01-0.01-0.01-0.01-0.02c-1.19-2.7-1.85-5.69-1.85-8.84
					c0-12.14,9.84-21.98,21.98-21.98S56,22.36,56,34.5c0,4.88-1.59,9.38-4.27,13.03C51.61,47.69,51.49,47.85,51.37,48.01z
					 M48.56,48.01c-0.69,0.74-1.44,1.43-2.23,2.06H21.72c-0.8-0.63-1.54-1.32-2.23-2.06L48.56,48.01z M41.51,36.1l0.07,0.09
					l0.08-0.09v0.18l7.99,9.59h0.65c2.25-3.22,3.58-7.14,3.58-11.37c0-10.96-8.88-19.84-19.84-19.84S14.18,23.54,14.18,34.5
					c0,2.44,0.44,4.78,1.25,6.94l7.7-9.24l4.45-5.38l0.01,0.02l0.03-0.03v0.06l10.76,12.99L41.51,36.1z M41.66,39.62v6.25h5.21
					L41.66,39.62z M33.36,45.87l2.09-2.51H16.26c0.44,0.87,0.94,1.71,1.49,2.51H33.36z M27.62,30.22v11h9.11L27.62,30.22z
					 M34.02,54.34c-3.23,0-6.27-0.77-8.97-2.14h17.93C40.3,53.57,37.25,54.34,34.02,54.34z"/>
				<path class="st0" d="M67.67,24.3v20.65h7.96c6.2,0,9.85-3.85,9.85-10.4c0-6.55-3.65-10.25-9.85-10.25H67.67z M71.99,27.86h3.12
					c3.81,0,5.95,2.38,5.95,6.7c0,4.46-2.09,6.81-5.95,6.81h-3.12V27.86z"/>
				<path class="st0" d="M94.79,32.04c1.93,0,3.28,1.35,3.35,3.41h-6.8C91.49,33.43,92.89,32.04,94.79,32.04z M98.2,40.14
					c-0.4,1.22-1.65,1.96-3.22,1.96c-2.2,0-3.68-1.53-3.68-3.81v-0.26h10.88v-1.29c0-4.79-2.89-7.83-7.43-7.83
					c-4.62,0-7.57,3.21-7.57,8.21s2.93,8.09,7.73,8.09c3.84,0,6.68-2.03,7.14-5.08H98.2z"/>
				<path class="st0" d="M118.48,35.01c-0.2-3.51-2.9-6.08-7.14-6.08c-4.68,0-7.68,3.15-7.68,8.14c0,5.07,3.01,8.16,7.71,8.16
					c4.14,0,6.88-2.33,7.13-6h-3.89c-0.27,1.73-1.43,2.69-3.19,2.69c-2.16,0-3.52-1.77-3.52-4.85c0-3.02,1.36-4.85,3.51-4.85
					c1.82,0,2.96,1.16,3.19,2.79H118.48z"/>
				<path class="st0" d="M127.43,32.04c1.93,0,3.28,1.35,3.35,3.41h-6.8C124.12,33.43,125.52,32.04,127.43,32.04z M130.83,40.14
					c-0.4,1.22-1.65,1.96-3.22,1.96c-2.2,0-3.68-1.53-3.68-3.81v-0.26h10.88v-1.29c0-4.79-2.89-7.83-7.43-7.83
					c-4.62,0-7.57,3.21-7.57,8.21s2.93,8.09,7.73,8.09c3.83,0,6.68-2.03,7.14-5.08H130.83z"/>
				<path class="st0" d="M136.87,44.95h4.18v-8.99c0-2.09,1.2-3.52,3.21-3.52c1.97,0,2.95,1.19,2.95,3.28v9.23h4.18v-10.1
					c0-3.68-1.97-5.88-5.47-5.88c-2.42,0-4.02,1.06-4.92,3.05h-0.09V29.2h-4.04V44.95z"/>
				<path class="st0" d="M155.09,25.69v3.51h-2.13v3.16h2.13v8.34c0,3.08,1.43,4.31,5.08,4.31c0.84,0,1.59-0.09,2.02-0.17v-3.09
					c-0.26,0.04-0.67,0.07-1.04,0.07c-1.27,0-1.87-0.59-1.87-1.8v-7.66h2.92V29.2h-2.92v-3.51H155.09z"/>
				<path class="st0" d="M164.41,44.95h4.18v-8.82c0-2.2,1.25-3.52,3.36-3.52c0.62,0,1.19,0.1,1.55,0.24v-3.69
					c-0.3-0.1-0.73-0.16-1.22-0.16c-1.86,0-3.22,1.06-3.75,3.01h-0.09V29.2h-4.04V44.95z"/>
				<path class="st0" d="M180.76,42.09c-1.52,0-2.5-0.73-2.5-1.89c0-1.16,0.93-1.85,2.68-1.96l3.31-0.23v1.16
					C184.23,40.89,182.69,42.09,180.76,42.09z M179.4,45.14c2.02,0,3.96-0.97,4.82-2.62h0.09v2.43h4.04v-10.8
					c0-3.15-2.65-5.22-6.7-5.22c-3.93,0-6.65,2.07-6.77,5.08h3.82c0.2-1.14,1.26-1.95,2.78-1.95c1.72,0,2.76,0.83,2.76,2.35v1.04
					l-3.94,0.24c-4.02,0.24-6.21,1.86-6.21,4.72C174.09,43.23,176.36,45.14,179.4,45.14z"/>
				<path class="st0" d="M191.09,44.95h4.18V23.31h-4.18V44.95z"/>
				<path class="st0" d="M204.06,42.09c-1.52,0-2.5-0.73-2.5-1.89c0-1.16,0.93-1.85,2.68-1.96l3.31-0.23v1.16
					C207.54,40.89,205.99,42.09,204.06,42.09z M202.7,45.14c2.02,0,3.96-0.97,4.82-2.62h0.09v2.43h4.04v-10.8
					c0-3.15-2.65-5.22-6.7-5.22c-3.93,0-6.65,2.07-6.77,5.08H202c0.2-1.14,1.26-1.95,2.78-1.95c1.72,0,2.76,0.83,2.76,2.35v1.04
					l-3.94,0.24c-4.02,0.24-6.21,1.86-6.21,4.72C197.39,43.23,199.67,45.14,202.7,45.14z"/>
				<path class="st0" d="M214.28,44.95h4.18v-8.99c0-2.09,1.2-3.52,3.21-3.52c1.97,0,2.95,1.19,2.95,3.28v9.23h4.18v-10.1
					c0-3.68-1.97-5.88-5.47-5.88c-2.42,0-4.02,1.06-4.92,3.05h-0.09V29.2h-4.04V44.95z"/>
				<path class="st0" d="M237.25,45.14c2.32,0,4.14-1.14,4.91-2.88h0.07v2.69h4.12V23.31h-4.18v8.57h-0.09
					c-0.79-1.75-2.55-2.88-4.82-2.88c-3.92,0-6.47,3.11-6.47,8.04C230.8,42.02,233.33,45.14,237.25,45.14z M238.64,32.39
					c2.16,0,3.56,1.85,3.56,4.69c0,2.85-1.4,4.68-3.56,4.68c-2.18,0-3.56-1.8-3.56-4.69C235.08,34.2,236.46,32.39,238.64,32.39z"/>
			</g>
		</g>
	</g>
</g>
<g>
	<g>
		<g>
			<circle class="st2" cx="314.89" cy="34.5" r="24.85"/>
		</g>
		<g id="XMLID_8_">
			<path id="XMLID_3_" class="st3" d="M309.32,22.42h11.15c3.58,0,6.53,2.95,6.53,6.53v11.09c0,3.58-2.95,6.53-6.53,6.53h-11.15
				c-3.58,0-6.53-2.95-6.53-6.53V28.95C302.79,25.37,305.73,22.42,309.32,22.42L309.32,22.42z M321.39,26.64L321.39,26.64
				c0.75,0,1.39,0.64,1.39,1.39l0,0c0,0.75-0.64,1.39-1.39,1.39l0,0c-0.81,0-1.39-0.64-1.39-1.39l0,0
				C320.01,27.28,320.59,26.64,321.39,26.64L321.39,26.64z M314.86,27.91h0.06c3.58,0,6.59,3,6.59,6.59l0,0c0,3.64-3,6.59-6.59,6.59
				h-0.06c-3.58,0-6.53-2.95-6.53-6.59l0,0C308.34,30.92,311.28,27.91,314.86,27.91L314.86,27.91z M314.86,30.17h0.06
				c2.37,0,4.33,1.96,4.33,4.33l0,0c0,2.43-1.96,4.39-4.33,4.39h-0.06c-2.37,0-4.33-1.96-4.33-4.39l0,0
				C310.53,32.13,312.5,30.17,314.86,30.17L314.86,30.17z M309.38,24.5h11.04c2.48,0,4.51,2.02,4.51,4.51v10.98
				c0,2.48-2.02,4.51-4.51,4.51h-11.04c-2.48,0-4.51-2.02-4.51-4.51V29.01C304.87,26.53,306.89,24.5,309.38,24.5L309.38,24.5z"/>
		</g>
		<g>
			<circle class="st2" cx="377.19" cy="34.5" r="24.85"/>
		</g>
	</g>
	<g id="layer1" transform="translate(52.390088,-25.058597)">
		<path id="path1009" class="st4" d="M311.45,47.38l10.05,13.43l-10.11,10.92h2.28l8.85-9.56l7.15,9.56h7.74l-10.61-14.19
			l9.41-10.17h-2.28l-8.15,8.81l-6.59-8.81H311.45z M314.79,49.06h3.56l15.71,21h-3.56L314.79,49.06z"/>
	</g>
</g>
</svg>
