<?xml version="1.0" encoding="utf-8"?>
<!-- Generator: Adobe Illustrator 27.9.4, SVG Export Plug-In . SVG Version: 9.03 Build 54784)  -->
<svg version="1.1" id="Capa_1" xmlns="http://www.w3.org/2000/svg" xmlns:xlink="http://www.w3.org/1999/xlink" x="0px" y="0px"
	 viewBox="0 0 304 70" style="enable-background:new 0 0 304 70;" xml:space="preserve">
<style type="text/css">
	.st0{fill:none;stroke:#ebecfa;stroke-width:2.0615;stroke-miterlimit:10;}
	.st1{fill:none;stroke:#ebecfa;stroke-width:2.0615;stroke-linecap:round;stroke-linejoin:round;stroke-miterlimit:10;}

		.st2{fill-rule:evenodd;clip-rule:evenodd;fill:none;stroke:#ebecfa;stroke-width:2.0615;stroke-linecap:round;stroke-miterlimit:10;}
</style>
<circle class="st0" cx="42.98" cy="35.5" r="28.87"/>
<path class="st1" d="M42.98,51.7c0-8.95-7.25-16.2-16.2-16.2c8.95,0,16.2-7.25,16.2-16.2c0,8.95,7.25,16.2,16.2,16.2
	C50.24,35.5,42.98,42.75,42.98,51.7z"/>
<circle class="st0" cx="115.37" cy="35.5" r="28.87"/>
<path class="st1" d="M128.04,29.17v-6.33h-6.33c-3.5,0-6.33,2.84-6.33,6.33l0,0c0-3.5-2.84-6.33-6.33-6.33h-6.33v6.33
	c0,3.5,2.84,6.33,6.33,6.33c-3.5,0-6.33,2.84-6.33,6.33v6.33h6.33c3.5,0,6.33-2.84,6.33-6.33c0,3.5,2.84,6.33,6.33,6.33h6.33v-6.33
	c0-3.5-2.84-6.33-6.33-6.33C125.2,35.5,128.04,32.66,128.04,29.17z"/>
<circle class="st0" cx="260.14" cy="35.5" r="28.87"/>
<path class="st1" d="M267.86,20.05L267.86,20.05c-4.27,0-7.73,3.46-7.73,7.73v0c0-4.27-3.46-7.73-7.73-7.73h0
	c-4.27,0-7.73,3.46-7.73,7.73v7.73v7.73c0,4.27,3.46,7.73,7.73,7.73h0c4.27,0,7.73-3.46,7.73-7.73v0c0,4.27,3.46,7.73,7.73,7.73h0
	c4.27,0,7.73-3.46,7.73-7.73V35.5v-7.73C275.59,23.51,272.13,20.05,267.86,20.05z"/>
<circle class="st0" cx="187.75" cy="35.5" r="28.87"/>
<path class="st2" d="M186.57,21.65L186.57,21.65c-7,0-12.67,5.67-12.67,12.67v0c0,7,5.67,12.67,12.67,12.67h12.67V34.32
	C199.24,27.32,193.57,21.65,186.57,21.65z"/>
</svg>
