<svg width="46" height="250" viewBox="0 0 46 250" fill="none" xmlns="http://www.w3.org/2000/svg">
<path d="M23 44C34.598 44 44 34.598 44 23C44 11.402 34.598 2 23 2C11.402 2 2 11.402 2 23C2 34.598 11.402 44 23 44Z" stroke="#EBECFA" stroke-width="2.0615" stroke-miterlimit="10"/>
<path d="M23 34C23 27.6466 18.0772 22.5 12 22.5C18.0772 22.5 23 17.3534 23 11C23 17.3534 27.9228 22.5 34 22.5C27.9296 22.5 23 27.6466 23 34Z" stroke="#EBECFA" stroke-width="2.0615" stroke-miterlimit="10" stroke-linecap="round" stroke-linejoin="round"/>
<path d="M23 112C34.598 112 44 102.598 44 91C44 79.402 34.598 70 23 70C11.402 70 2 79.402 2 91C2 102.598 11.402 112 23 112Z" stroke="#EBECFA" stroke-width="2.0615" stroke-miterlimit="10"/>
<path d="M33 85.75V81H28.25C25.6236 81 23.5 83.1311 23.5 85.75C23.5 83.1236 21.3689 81 18.75 81H14V85.75C14 88.3764 16.1311 90.5 18.75 90.5C16.1236 90.5 14 92.6311 14 95.25V100H18.75C21.3764 100 23.5 97.8689 23.5 95.25C23.5 97.8764 25.6311 100 28.25 100H33V95.25C33 92.6236 30.8689 90.5 28.25 90.5C30.8689 90.5 33 88.3689 33 85.75Z" stroke="#EBECFA" stroke-width="2.0615" stroke-miterlimit="10" stroke-linecap="round" stroke-linejoin="round"/>
<path d="M23 248C34.598 248 44 238.598 44 227C44 215.402 34.598 206 23 206C11.402 206 2 215.402 2 227C2 238.598 11.402 248 23 248Z" stroke="#EBECFA" stroke-width="2.0615" stroke-miterlimit="10"/>
<path d="M29.25 216C26.0737 216 23.5 218.462 23.5 221.5C23.5 218.462 20.9263 216 17.75 216C14.5737 216 12 218.462 12 221.5V227V232.5C12 235.538 14.5737 238 17.75 238C20.9263 238 23.5 235.538 23.5 232.5C23.5 235.538 26.0737 238 29.25 238C32.4263 238 35 235.538 35 232.5V226.993V221.493C35 218.462 32.4263 216 29.25 216Z" stroke="#EBECFA" stroke-width="2.0615" stroke-miterlimit="10" stroke-linecap="round" stroke-linejoin="round"/>
<path d="M23 180C34.598 180 44 170.598 44 159C44 147.402 34.598 138 23 138C11.402 138 2 147.402 2 159C2 170.598 11.402 180 23 180Z" stroke="#EBECFA" stroke-width="2.0615" stroke-miterlimit="10"/>
<path fill-rule="evenodd" clip-rule="evenodd" d="M22 148C16.4751 148 12 152.475 12 158C12 163.525 16.4751 168 22 168H32V158C32 152.475 27.5249 148 22 148Z" stroke="#EBECFA" stroke-width="2.0615" stroke-miterlimit="10" stroke-linecap="round"/>
</svg>
