<?xml version="1.0" encoding="utf-8"?>
<!-- Generator: Adobe Illustrator 27.9.4, SVG Export Plug-In . SVG Version: 9.03 Build 54784)  -->
<svg version="1.1" id="Capa_1" xmlns="http://www.w3.org/2000/svg" xmlns:xlink="http://www.w3.org/1999/xlink" x="0px" y="0px"
	 viewBox="0 0 818 304" style="enable-background:new 0 0 818 304;" xml:space="preserve">
<style type="text/css">
	.st0{fill:#EBECFA;}
</style>
<g>
	<g>
		<path class="st0" d="M737.17,88.06l-31.39,106.92l-32.9-106.92h-67.1l-32.9,106.92L541.51,88.06h-0.9H338.35l-42.64,112.55
			L253.08,88.06h-1.49h-69.26l-46.75,86.58L88.82,88.06H19.56v151.51h56.28v-72.08l41.34,72.08h36.8l41.34-72.08v72.08h142.18
			l43.04-103.89h103.8v28.51h-90.91v47.62h90.91v27.76h130.12l24.89-87.23l24.89,87.23h83.55l49.78-151.51H737.17z"/>
		<g>
			<path class="st0" d="M775.62,265v21.79h9.1c3.25,0,5.85-0.99,7.83-3c1.98-2.01,2.97-4.64,2.97-7.89c0-3.25-0.99-5.88-2.97-7.89
				c-1.98-2.01-4.58-3-7.83-3H775.62z M780.18,283.05v-14.24h4.33c4.24,0,6.35,2.35,6.35,7.09c0,4.77-2.1,7.15-6.35,7.15H780.18z"/>
			<path class="st0" d="M765.47,277.94l0.19,6.69L757.92,265h-7.92v21.79h4.52v-13.47l-0.19-6.38l7.83,19.84h7.83V265h-4.52V277.94z
				"/>
			<path class="st0" d="M746.73,286.79L739.71,265h-7.99l-7.03,21.79h4.55l1.86-5.79h9.04l1.86,5.79H746.73z M734.29,271.1
				l1.36-4.64l1.33,4.64l2.01,6.31h-6.75L734.29,271.1z"/>
			<path class="st0" d="M713.13,265h-4.55v21.79h14.8v-3.81h-10.25V265z"/>
			<path class="st0" d="M705.32,286.79L698.29,265h-7.99l-7.03,21.79h4.55l1.86-5.79h9.04l1.86,5.79H705.32z M692.87,271.1
				l1.36-4.64l1.33,4.64l2.01,6.31h-6.75L692.87,271.1z"/>
			<path class="st0" d="M682.55,286.79l-4.3-6.72l-1.77-2.38c2.7-0.96,4.27-3.22,4.27-6.16c0-1.95-0.65-3.53-1.92-4.74
				c-1.27-1.21-2.97-1.8-5.08-1.8H663.2v21.79h4.55v-8.61h4.33l5.39,8.61H682.55z M672.7,268.62c2.35,0,3.38,0.93,3.38,3.06
				c0,2.2-1.02,3.16-3.38,3.16h-4.95v-6.22H672.7z"/>
			<path class="st0" d="M640.5,265v3.81h7.46v17.98h4.55v-17.98h7.46V265H640.5z"/>
			<path class="st0" d="M632.76,277.94l0.19,6.69L625.21,265h-7.92v21.79h4.52v-13.47l-0.18-6.38l7.83,19.84h7.83V265h-4.52V277.94z
				"/>
			<path class="st0" d="M601.67,277.57h10.25v-3.56h-10.25v-5.2h10.8V265h-15.35v21.79h15.51v-3.81h-10.96V277.57z"/>
			<path class="st0" d="M583.2,264.54c-3.25,0-5.85,1.05-7.86,3.13c-1.98,2.07-2.97,4.83-2.97,8.23s0.99,6.16,2.97,8.23
				c2.01,2.07,4.61,3.13,7.86,3.13c2.85,0,5.2-0.71,7.06-2.17c1.86-1.45,2.79-3.41,2.79-5.91h-4.55c0,2.88-1.61,4.15-5.29,4.15
				c-4.3,0-6.16-2.23-6.16-7.43s1.86-7.4,6.16-7.4c3.68,0,5.26,1.33,5.26,4.52h4.55c0-2.6-0.93-4.67-2.79-6.19
				C588.36,265.31,586.01,264.54,583.2,264.54z"/>
			<path class="st0" d="M558.44,277.57h10.24v-3.56h-10.24v-5.2h10.8V265h-15.35v21.79h15.51v-3.81h-10.96V277.57z"/>
			<path class="st0" d="M529.68,265v21.79h9.1c3.25,0,5.85-0.99,7.83-3c1.98-2.01,2.97-4.64,2.97-7.89c0-3.25-0.99-5.88-2.97-7.89
				c-1.98-2.01-4.58-3-7.83-3H529.68z M534.23,283.05v-14.24h4.33c4.24,0,6.35,2.35,6.35,7.09c0,4.77-2.1,7.15-6.35,7.15H534.23z"/>
			<path class="st0" d="M516.02,265l-3.96,7.65l-1.67,3.81l-1.64-3.81l-3.99-7.65h-4.92l8.14,15.35v6.44h4.55v-6.44l8.14-15.35
				H516.02z"/>
			<path class="st0" d="M493.56,274.97c2.6-0.62,4.18-2.38,4.18-4.74c0-1.58-0.62-2.82-1.89-3.78c-1.27-0.96-2.91-1.45-4.95-1.45
				h-10.62v21.79h11.39c2.07,0,3.71-0.56,4.95-1.67c1.27-1.11,1.89-2.6,1.89-4.43C498.52,277.88,496.78,275.8,493.56,274.97z
				 M489.69,268.62c2.35,0,3.37,0.87,3.37,2.85s-1.02,2.85-3.37,2.85h-4.86v-5.7H489.69z M484.83,283.17v-5.76h5.51
				c2.38,0,3.37,0.87,3.37,2.88c0,2.01-0.99,2.88-3.37,2.88H484.83z"/>
			<path class="st0" d="M470.53,265h-5.63l-7.15,7.55l-2.35,2.76V265h-4.58v21.79h4.58v-10.4l2.38,2.72l7.37,7.68h6.1l-10.8-11.08
				L470.53,265z"/>
			<path class="st0" d="M435.19,277.57h10.25v-3.56h-10.25v-5.2H446V265h-15.35v21.79h15.51v-3.81h-10.96V277.57z"/>
			<path class="st0" d="M415.03,277.57h10.25v-3.56h-10.25v-5.2h10.8V265h-15.35v21.79h15.51v-3.81h-10.96V277.57z"/>
			<path class="st0" d="M398.67,280.69l-0.84,4.21l-0.74-4.21L393.78,265h-7.18l-3.34,15.69l-0.71,4.21l-0.87-4.21L377.96,265h-5.02
				l5.48,21.79h7.65l3.22-14.67l0.9-5.05l0.9,5.01l3.22,14.7h7.55l5.48-21.79h-4.92L398.67,280.69z"/>
			<path class="st0" d="M358.73,277.94l0.19,6.69L351.17,265h-7.92v21.79h4.52v-13.47l-0.18-6.38l7.83,19.84h7.83V265h-4.52V277.94z
				"/>
			<path class="st0" d="M335.93,284.13c2.01-2.07,3.03-4.83,3.03-8.23s-1.02-6.16-3.03-8.23c-2.01-2.07-4.7-3.13-8.02-3.13
				c-3.31,0-6.01,1.05-8.02,3.13c-2.01,2.07-3.03,4.83-3.03,8.23s1.02,6.16,3.03,8.23c2.01,2.07,4.7,3.13,8.02,3.13
				C331.22,287.26,333.92,286.21,335.93,284.13z M323.05,281.56c-1.02-1.18-1.52-3.06-1.52-5.66c0-2.6,0.5-4.49,1.52-5.63
				c1.02-1.18,2.63-1.76,4.86-1.76c2.23,0,3.84,0.59,4.86,1.76c1.02,1.15,1.52,3.03,1.52,5.63c0,2.6-0.5,4.49-1.52,5.66
				c-1.02,1.18-2.63,1.76-4.86,1.76C325.68,283.33,324.07,282.74,323.05,281.56z"/>
			<path class="st0" d="M308,286.79h4.55V265H308V286.79z"/>
			<path class="st0" d="M297.83,273.85h-10.37V265h-4.55v21.79h4.55v-9.13h10.37v9.13h4.55V265h-4.55V273.85z"/>
			<path class="st0" d="M269.35,287.26c2.88,0,5.17-0.62,6.93-1.83c1.77-1.21,2.63-2.82,2.63-4.83c0-1.83-0.62-3.25-1.89-4.27
				c-1.27-1.05-3.38-1.86-6.35-2.38c-2.38-0.43-3.96-0.87-4.74-1.33c-0.78-0.46-1.15-1.08-1.15-1.86c0-1.67,1.46-2.51,4.4-2.51
				c3.31,0,4.74,1.15,4.74,3.9h4.55c0-2.29-0.84-4.12-2.54-5.51c-1.7-1.39-3.93-2.1-6.69-2.1c-2.69,0-4.89,0.62-6.56,1.89
				c-1.64,1.27-2.48,2.91-2.48,4.95c0,3.56,2.41,5.39,8.23,6.47c3.37,0.62,5.14,1.39,5.54,2.04c0.22,0.31,0.34,0.71,0.34,1.21
				c0,1.64-1.64,2.45-4.95,2.45c-3.62,0-5.17-1.11-5.17-3.71h-4.55c0,2.23,0.9,4.02,2.66,5.39
				C264.08,286.58,266.44,287.26,269.35,287.26z"/>
			<path class="st0" d="M258.04,286.79L251.01,265h-7.99L236,286.79h4.55l1.86-5.79h9.04l1.86,5.79H258.04z M245.6,271.1l1.36-4.64
				l1.33,4.64l2.01,6.31h-6.75L245.6,271.1z"/>
			<path class="st0" d="M236.23,265h-15.04v21.79h4.55v-9.07h10v-3.56h-10v-5.36h10.49V265z"/>
			<path class="st0" d="M199.37,277.57h10.25v-3.56h-10.25v-5.2h10.8V265h-15.35v21.79h15.51v-3.81h-10.96V277.57z"/>
			<path class="st0" d="M181.26,287.26c2.88,0,5.17-0.62,6.93-1.83c1.76-1.21,2.63-2.82,2.63-4.83c0-1.83-0.62-3.25-1.89-4.27
				c-1.27-1.05-3.37-1.86-6.35-2.38c-2.38-0.43-3.96-0.87-4.74-1.33c-0.77-0.46-1.15-1.08-1.15-1.86c0-1.67,1.46-2.51,4.4-2.51
				c3.31,0,4.74,1.15,4.74,3.9h4.55c0-2.29-0.84-4.12-2.54-5.51c-1.7-1.39-3.93-2.1-6.69-2.1c-2.69,0-4.89,0.62-6.56,1.89
				c-1.64,1.27-2.48,2.91-2.48,4.95c0,3.56,2.41,5.39,8.23,6.47c3.37,0.62,5.14,1.39,5.54,2.04c0.22,0.31,0.34,0.71,0.34,1.21
				c0,1.64-1.64,2.45-4.95,2.45c-3.62,0-5.17-1.11-5.17-3.71h-4.55c0,2.23,0.9,4.02,2.66,5.39
				C175.99,286.58,178.35,287.26,181.26,287.26z"/>
			<path class="st0" d="M170.1,286.79l-4.3-6.72l-1.76-2.38c2.69-0.96,4.27-3.22,4.27-6.16c0-1.95-0.65-3.53-1.92-4.74
				s-2.97-1.8-5.08-1.8h-10.56v21.79h4.55v-8.61h4.33l5.39,8.61H170.1z M160.25,268.62c2.35,0,3.37,0.93,3.37,3.06
				c0,2.2-1.02,3.16-3.37,3.16h-4.95v-6.22H160.25z"/>
			<path class="st0" d="M135.13,277.57h10.25v-3.56h-10.25v-5.2h10.8V265h-15.35v21.79h15.51v-3.81h-10.96V277.57z"/>
			<path class="st0" d="M118.33,280.69l-1.27,4.43l-1.3-4.43L110.84,265h-4.74l6.9,21.79h7.92l6.9-21.79h-4.58L118.33,280.69z"/>
			<path class="st0" d="M107.59,286.79L100.56,265h-7.99l-7.03,21.79h4.55l1.86-5.79h9.04l1.86,5.79H107.59z M95.14,271.1l1.36-4.64
				l1.33,4.64l2.01,6.31H93.1L95.14,271.1z"/>
			<path class="st0" d="M69.28,265v3.81h7.46v17.98h4.55v-17.98h7.46V265H69.28z"/>
			<path class="st0" d="M56.09,277.57h10.25v-3.56H56.09v-5.2h10.8V265H51.54v21.79h15.51v-3.81H56.09V277.57z"/>
			<path class="st0" d="M38.1,265l-4.12,15.29l-0.71,3.99l-0.74-3.99L28.38,265H20.4v21.79h4.58v-15.88l-0.09-3.99l5.2,19.87h6.19
				l5.14-19.9l-0.09,4.02v15.88h4.58V265H38.1z"/>
		</g>
	</g>
</g>
<g>
	<path class="st0" d="M41.35,47.66h8.65l-9.74-29.51H29.3l-9.74,29.51h8.65l1.71-5.65h9.73L41.35,47.66z M31.72,36.01l2.94-9.74
		h0.23l2.94,9.74H31.72z"/>
	<path class="st0" d="M75.14,23.09c-0.91-1.57-2.19-2.78-3.83-3.65c-1.64-0.86-3.56-1.3-5.75-1.3H52.82v29.51h8.01V38.9h4.44
		c2.25,0,4.21-0.42,5.9-1.25c1.69-0.84,3-2.03,3.93-3.57c0.94-1.55,1.41-3.38,1.41-5.49C76.5,26.48,76.05,24.65,75.14,23.09z
		 M67.61,30.75c-0.36,0.62-0.87,1.09-1.54,1.42c-0.67,0.33-1.47,0.5-2.41,0.5h-2.82v-8.13h2.82c0.94,0,1.75,0.16,2.41,0.48
		c0.67,0.32,1.18,0.78,1.54,1.38c0.36,0.6,0.54,1.32,0.54,2.17C68.15,29.41,67.97,30.14,67.61,30.75z"/>
	<path class="st0" d="M95.41,47.66h8.7l-6-11.02c1.53-0.73,2.74-1.77,3.62-3.12c0.94-1.45,1.41-3.23,1.41-5.35
		c0-2.09-0.46-3.89-1.37-5.39c-0.91-1.5-2.19-2.65-3.83-3.44s-3.56-1.2-5.75-1.2H79.44v29.51h8.01v-9.74h2.77L95.41,47.66z
		 M87.46,24.54h2.82c0.94,0,1.75,0.13,2.41,0.38c0.67,0.25,1.18,0.65,1.54,1.18c0.36,0.53,0.54,1.22,0.54,2.07
		c0,0.84-0.18,1.51-0.54,2.03c-0.36,0.52-0.87,0.9-1.54,1.13c-0.67,0.24-1.47,0.35-2.41,0.35h-2.82V24.54z"/>
	<path class="st0" d="M114.54,18.15v29.51h-8.01V18.15H114.54z"/>
	<path class="st0" d="M118.35,47.66V18.15h8.01V41.2h11.93v6.46H118.35z"/>
	<path class="st0" d="M165.47,17.74c1.72,0,3.35,0.27,4.88,0.81c1.54,0.54,2.9,1.4,4.09,2.56c1.19,1.16,2.12,2.68,2.8,4.55
		c0.68,1.87,1.02,4.13,1.03,6.78c0.01,2.42-0.29,4.59-0.9,6.52c-0.61,1.93-1.48,3.57-2.61,4.92c-1.13,1.35-2.48,2.39-4.06,3.11
		c-1.58,0.72-3.34,1.07-5.28,1.07c-2.18,0-4.1-0.42-5.75-1.25c-1.65-0.84-2.97-1.96-3.95-3.37c-0.98-1.41-1.55-2.98-1.71-4.71h7.9
		c0.19,0.89,0.61,1.54,1.27,1.94c0.65,0.4,1.4,0.6,2.25,0.6c1.69,0,2.93-0.73,3.71-2.2c0.78-1.46,1.18-3.42,1.19-5.87h-0.17
		c-0.37,0.9-0.94,1.68-1.7,2.32c-0.76,0.64-1.64,1.14-2.65,1.48c-1.01,0.35-2.08,0.52-3.2,0.52c-1.78,0-3.33-0.4-4.67-1.2
		c-1.33-0.8-2.38-1.9-3.13-3.3c-0.75-1.4-1.13-2.99-1.14-4.78c-0.01-2.09,0.49-3.93,1.48-5.5c1-1.58,2.39-2.8,4.16-3.67
		C161.08,18.18,163.14,17.74,165.47,17.74z M165.53,23.79c-0.8,0-1.51,0.18-2.13,0.55c-0.62,0.37-1.1,0.86-1.46,1.48
		c-0.35,0.62-0.52,1.33-0.51,2.12c0.01,0.79,0.19,1.49,0.54,2.12c0.35,0.62,0.83,1.12,1.44,1.48c0.61,0.37,1.31,0.55,2.11,0.55
		c0.59,0,1.13-0.1,1.63-0.31c0.5-0.21,0.93-0.5,1.3-0.88c0.37-0.38,0.66-0.82,0.86-1.33c0.21-0.5,0.3-1.05,0.3-1.64
		c-0.01-0.79-0.19-1.49-0.55-2.12c-0.36-0.62-0.84-1.12-1.46-1.48C167,23.98,166.31,23.79,165.53,23.79z"/>
	<path class="st0" d="M198.08,35.9L198.08,35.9c0,1.66-1.34,3-3,3h-7.84c-1.66,0-3-1.34-3-3v0c0-1.66,1.34-3,3-3h7.84
		C196.73,32.9,198.08,34.24,198.08,35.9z"/>
	<path class="st0" d="M218.68,18.15v29.51h-8.01V25.52h-0.17l-6.46,3.86v-6.8l7.26-4.44H218.68z"/>
	<path class="st0" d="M224.74,47.66v-5.76l11.01-9.11c0.73-0.61,1.36-1.17,1.88-1.71c0.52-0.53,0.93-1.08,1.21-1.65
		c0.28-0.57,0.43-1.2,0.43-1.89c0-0.76-0.16-1.41-0.48-1.94c-0.32-0.54-0.77-0.95-1.33-1.25c-0.57-0.29-1.22-0.44-1.96-0.44
		c-0.74,0-1.39,0.15-1.95,0.45c-0.56,0.3-1,0.73-1.3,1.31c-0.31,0.58-0.46,1.28-0.46,2.1h-7.61c0-2.08,0.47-3.86,1.4-5.36
		c0.93-1.5,2.25-2.65,3.95-3.46c1.7-0.81,3.69-1.21,5.98-1.21c2.36,0,4.41,0.38,6.15,1.13c1.73,0.75,3.07,1.81,4.02,3.18
		c0.95,1.36,1.42,2.96,1.42,4.8c0,1.13-0.24,2.26-0.71,3.38c-0.47,1.12-1.32,2.36-2.54,3.71c-1.22,1.35-2.95,2.97-5.2,4.84
		l-2.77,2.31v0.17h11.53v6.4H224.74z"/>
</g>
</svg>
