<?xml version="1.0" encoding="utf-8"?>
<!-- Generator: Adobe Illustrator 27.9.4, SVG Export Plug-In . SVG Version: 9.03 Build 54784)  -->
<svg version="1.1" id="Capa_1" xmlns="http://www.w3.org/2000/svg" xmlns:xlink="http://www.w3.org/1999/xlink" x="0px" y="0px"
	 viewBox="0 0 956 40" style="enable-background:new 0 0 956 40;" xml:space="preserve">
<style type="text/css">
	.st0{fill:#EBECFA;}
</style>
<g>
	<g>
		<g>
			<g>
				<path class="st0" d="M18.2,27.05h-6.21V9.53h6.26c1.76,0,3.28,0.35,4.55,1.05c1.27,0.7,2.25,1.7,2.94,3.01
					c0.69,1.31,1.03,2.87,1.03,4.69c0,1.83-0.34,3.39-1.03,4.71c-0.69,1.31-1.67,2.32-2.95,3.02C21.51,26.7,19.98,27.05,18.2,27.05z
					 M15.7,23.88h2.35c1.1,0,2.02-0.2,2.77-0.59c0.75-0.39,1.31-1,1.69-1.82s0.57-1.89,0.57-3.2c0-1.29-0.19-2.35-0.57-3.17
					s-0.94-1.43-1.69-1.81s-1.67-0.58-2.76-0.58H15.7V23.88z"/>
				<path class="st0" d="M35.43,27.31c-1.35,0-2.51-0.28-3.49-0.83c-0.97-0.55-1.72-1.33-2.25-2.34s-0.79-2.21-0.79-3.6
					c0-1.35,0.26-2.54,0.79-3.56c0.52-1.02,1.27-1.82,2.22-2.39c0.96-0.57,2.08-0.86,3.37-0.86c0.87,0,1.68,0.14,2.43,0.42
					c0.75,0.28,1.41,0.69,1.97,1.25c0.56,0.55,1,1.25,1.31,2.08c0.31,0.84,0.47,1.81,0.47,2.93v1h-11.1v-2.26h7.67
					c0-0.52-0.11-0.99-0.34-1.39c-0.23-0.41-0.54-0.72-0.95-0.95c-0.4-0.23-0.87-0.35-1.4-0.35c-0.55,0-1.04,0.13-1.47,0.38
					s-0.76,0.59-1,1.02c-0.24,0.42-0.36,0.9-0.37,1.42v2.15c0,0.65,0.12,1.21,0.36,1.69c0.24,0.47,0.59,0.84,1.03,1.09
					c0.44,0.26,0.97,0.39,1.58,0.39c0.4,0,0.78-0.06,1.11-0.17c0.34-0.11,0.62-0.29,0.86-0.51c0.24-0.23,0.42-0.51,0.55-0.84
					l3.37,0.22c-0.17,0.81-0.52,1.52-1.05,2.12c-0.53,0.6-1.21,1.07-2.04,1.4C37.47,27.14,36.52,27.31,35.43,27.31z"/>
				<path class="st0" d="M49.78,27.31c-1.35,0-2.5-0.29-3.47-0.86s-1.71-1.37-2.22-2.39c-0.52-1.02-0.77-2.2-0.77-3.53
					c0-1.35,0.26-2.53,0.78-3.55c0.52-1.02,1.27-1.81,2.23-2.39s2.11-0.86,3.44-0.86c1.15,0,2.15,0.21,3.01,0.62s1.54,1,2.04,1.75
					s0.78,1.64,0.83,2.65h-3.44c-0.1-0.66-0.35-1.18-0.77-1.59s-0.95-0.6-1.62-0.6c-0.56,0-1.06,0.15-1.48,0.46
					c-0.42,0.3-0.75,0.75-0.98,1.33s-0.35,1.29-0.35,2.11c0,0.84,0.12,1.55,0.35,2.14c0.23,0.59,0.56,1.04,0.98,1.34
					c0.42,0.31,0.92,0.46,1.48,0.46c0.42,0,0.79-0.08,1.12-0.26c0.33-0.17,0.61-0.42,0.83-0.75c0.22-0.33,0.36-0.72,0.43-1.19h3.44
					c-0.06,1-0.33,1.89-0.82,2.65s-1.16,1.36-2.01,1.78C51.96,27.1,50.95,27.31,49.78,27.31z"/>
				<path class="st0" d="M63.99,27.31c-1.35,0-2.51-0.28-3.49-0.83c-0.97-0.55-1.72-1.33-2.25-2.34c-0.52-1.01-0.79-2.21-0.79-3.6
					c0-1.35,0.26-2.54,0.79-3.56c0.52-1.02,1.26-1.82,2.22-2.39c0.96-0.57,2.08-0.86,3.37-0.86c0.87,0,1.68,0.14,2.43,0.42
					c0.75,0.28,1.41,0.69,1.97,1.25c0.56,0.55,1,1.25,1.31,2.08c0.31,0.84,0.47,1.81,0.47,2.93v1h-11.1v-2.26h7.67
					c0-0.52-0.11-0.99-0.34-1.39c-0.23-0.41-0.54-0.72-0.95-0.95c-0.4-0.23-0.87-0.35-1.4-0.35c-0.55,0-1.04,0.13-1.47,0.38
					c-0.42,0.25-0.76,0.59-1,1.02s-0.36,0.9-0.37,1.42v2.15c0,0.65,0.12,1.21,0.36,1.69c0.24,0.47,0.59,0.84,1.03,1.09
					c0.44,0.26,0.97,0.39,1.58,0.39c0.41,0,0.78-0.06,1.11-0.17c0.34-0.11,0.62-0.29,0.86-0.51c0.24-0.23,0.42-0.51,0.55-0.84
					l3.37,0.22c-0.17,0.81-0.52,1.52-1.05,2.12c-0.53,0.6-1.21,1.07-2.04,1.4C66.03,27.14,65.07,27.31,63.99,27.31z"/>
				<path class="st0" d="M76.04,19.46v7.6H72.4V13.91h3.47v2.32h0.15c0.29-0.76,0.78-1.37,1.46-1.82c0.68-0.45,1.51-0.67,2.49-0.67
					c0.91,0,1.71,0.2,2.39,0.6c0.68,0.4,1.21,0.97,1.58,1.71c0.38,0.74,0.56,1.62,0.56,2.64v8.37h-3.65v-7.72
					c0.01-0.8-0.2-1.43-0.62-1.89c-0.42-0.45-0.99-0.68-1.72-0.68c-0.49,0-0.92,0.11-1.3,0.32c-0.37,0.21-0.66,0.52-0.87,0.92
					C76.15,18.41,76.05,18.89,76.04,19.46z"/>
				<path class="st0" d="M94.37,13.91v2.74h-7.91v-2.74H94.37z M88.25,10.76h3.65v12.25c0,0.34,0.05,0.6,0.15,0.78
					c0.1,0.19,0.25,0.32,0.43,0.39c0.19,0.07,0.4,0.11,0.65,0.11c0.17,0,0.34-0.02,0.51-0.05c0.17-0.03,0.3-0.06,0.39-0.07
					l0.57,2.71c-0.18,0.06-0.44,0.12-0.77,0.2c-0.33,0.08-0.73,0.12-1.21,0.14c-0.88,0.03-1.65-0.08-2.31-0.35
					c-0.66-0.27-1.17-0.68-1.54-1.25c-0.37-0.57-0.54-1.28-0.54-2.14V10.76z"/>
				<path class="st0" d="M96.74,27.05V13.91h3.53v2.29h0.14c0.24-0.82,0.64-1.43,1.21-1.85c0.56-0.42,1.21-0.63,1.95-0.63
					c0.18,0,0.38,0.01,0.59,0.03s0.4,0.05,0.56,0.09v3.23c-0.17-0.05-0.41-0.1-0.71-0.14s-0.58-0.06-0.83-0.06
					c-0.54,0-1.01,0.12-1.43,0.35c-0.42,0.23-0.75,0.55-0.99,0.96c-0.24,0.41-0.36,0.88-0.36,1.42v7.44H96.74z"/>
				<path class="st0" d="M109.96,27.3c-0.84,0-1.59-0.15-2.24-0.44c-0.66-0.29-1.17-0.73-1.55-1.31c-0.38-0.58-0.57-1.3-0.57-2.17
					c0-0.73,0.13-1.34,0.4-1.84s0.63-0.9,1.1-1.2c0.46-0.3,0.99-0.53,1.58-0.68s1.21-0.26,1.86-0.33c0.76-0.08,1.38-0.16,1.85-0.23
					s0.81-0.18,1.02-0.32s0.32-0.35,0.32-0.63v-0.05c0-0.54-0.17-0.96-0.51-1.26c-0.34-0.3-0.82-0.45-1.44-0.45
					c-0.66,0-1.18,0.14-1.57,0.43c-0.39,0.29-0.64,0.65-0.77,1.08l-3.37-0.27c0.17-0.8,0.51-1.49,1.01-2.07s1.15-1.04,1.95-1.35
					c0.8-0.32,1.72-0.48,2.77-0.48c0.73,0,1.43,0.09,2.1,0.26c0.67,0.17,1.27,0.44,1.79,0.8s0.93,0.82,1.24,1.38
					s0.45,1.23,0.45,2.01v8.86h-3.46v-1.82h-0.1c-0.21,0.41-0.49,0.77-0.85,1.08c-0.35,0.31-0.78,0.55-1.27,0.73
					C111.19,27.22,110.62,27.3,109.96,27.3z M111.01,24.79c0.54,0,1.01-0.11,1.42-0.32s0.73-0.5,0.97-0.87
					c0.23-0.36,0.35-0.78,0.35-1.24v-1.39c-0.11,0.07-0.27,0.14-0.47,0.2c-0.2,0.06-0.42,0.11-0.66,0.16
					c-0.25,0.05-0.49,0.09-0.74,0.13c-0.25,0.04-0.47,0.07-0.67,0.1c-0.43,0.06-0.8,0.16-1.12,0.3s-0.57,0.32-0.74,0.55
					c-0.18,0.23-0.27,0.52-0.27,0.86c0,0.5,0.18,0.87,0.54,1.13C109.99,24.66,110.45,24.79,111.01,24.79z"/>
				<path class="st0" d="M123.84,9.53v17.52h-3.65V9.53H123.84z"/>
				<path class="st0" d="M130.5,27.3c-0.84,0-1.59-0.15-2.24-0.44c-0.66-0.29-1.17-0.73-1.55-1.31c-0.38-0.58-0.57-1.3-0.57-2.17
					c0-0.73,0.13-1.34,0.4-1.84s0.63-0.9,1.1-1.2c0.46-0.3,0.99-0.53,1.58-0.68c0.59-0.15,1.21-0.26,1.86-0.33
					c0.76-0.08,1.38-0.16,1.85-0.23c0.47-0.07,0.81-0.18,1.02-0.32s0.32-0.35,0.32-0.63v-0.05c0-0.54-0.17-0.96-0.51-1.26
					c-0.34-0.3-0.82-0.45-1.44-0.45c-0.66,0-1.18,0.14-1.57,0.43c-0.39,0.29-0.64,0.65-0.77,1.08l-3.37-0.27
					c0.17-0.8,0.51-1.49,1.01-2.07s1.15-1.04,1.95-1.35c0.8-0.32,1.72-0.48,2.77-0.48c0.73,0,1.43,0.09,2.1,0.26
					c0.67,0.17,1.27,0.44,1.79,0.8s0.93,0.82,1.24,1.38s0.45,1.23,0.45,2.01v8.86h-3.46v-1.82h-0.1c-0.21,0.41-0.49,0.77-0.85,1.08
					c-0.35,0.31-0.78,0.55-1.27,0.73S131.15,27.3,130.5,27.3z M131.54,24.79c0.54,0,1.01-0.11,1.42-0.32s0.73-0.5,0.97-0.87
					c0.23-0.36,0.35-0.78,0.35-1.24v-1.39c-0.11,0.07-0.27,0.14-0.47,0.2c-0.2,0.06-0.42,0.11-0.66,0.16
					c-0.25,0.05-0.49,0.09-0.74,0.13c-0.25,0.04-0.47,0.07-0.67,0.1c-0.43,0.06-0.8,0.16-1.12,0.3c-0.32,0.14-0.57,0.32-0.74,0.55
					c-0.18,0.23-0.27,0.52-0.27,0.86c0,0.5,0.18,0.87,0.54,1.13C130.52,24.66,130.98,24.79,131.54,24.79z"/>
				<path class="st0" d="M144.38,19.46v7.6h-3.65V13.91h3.47v2.32h0.15c0.29-0.76,0.78-1.37,1.46-1.82
					c0.68-0.45,1.51-0.67,2.49-0.67c0.91,0,1.71,0.2,2.39,0.6s1.21,0.97,1.58,1.71c0.38,0.74,0.56,1.62,0.56,2.64v8.37h-3.64v-7.72
					c0.01-0.8-0.2-1.43-0.62-1.89c-0.42-0.45-0.99-0.68-1.72-0.68c-0.49,0-0.92,0.11-1.3,0.32c-0.37,0.21-0.67,0.52-0.87,0.92
					S144.38,18.89,144.38,19.46z"/>
				<path class="st0" d="M160.56,27.27c-1,0-1.9-0.26-2.71-0.77c-0.81-0.52-1.45-1.28-1.92-2.28c-0.47-1.01-0.71-2.24-0.71-3.71
					c0-1.51,0.24-2.76,0.73-3.76s1.13-1.75,1.94-2.25s1.69-0.75,2.66-0.75c0.74,0,1.35,0.12,1.84,0.37c0.49,0.25,0.89,0.56,1.2,0.92
					c0.31,0.37,0.54,0.73,0.7,1.08h0.11V9.53h3.64v17.52h-3.59v-2.1h-0.15c-0.17,0.37-0.41,0.73-0.72,1.08
					c-0.31,0.36-0.71,0.65-1.21,0.89C161.86,27.15,161.26,27.27,160.56,27.27z M161.71,24.37c0.59,0,1.08-0.16,1.49-0.48
					c0.41-0.32,0.72-0.77,0.94-1.36c0.22-0.58,0.33-1.26,0.33-2.04c0-0.78-0.11-1.46-0.33-2.04s-0.53-1.02-0.94-1.33
					c-0.41-0.31-0.91-0.47-1.5-0.47c-0.6,0-1.1,0.16-1.51,0.49c-0.41,0.33-0.72,0.78-0.93,1.35s-0.32,1.24-0.32,2
					c0,0.76,0.11,1.44,0.32,2.02c0.21,0.58,0.52,1.04,0.93,1.37S161.11,24.37,161.71,24.37z"/>
				<path class="st0" d="M178.44,12.22c-0.54,0-1.01-0.18-1.39-0.54c-0.38-0.36-0.58-0.8-0.58-1.3c0-0.5,0.19-0.93,0.58-1.3
					c0.39-0.36,0.85-0.54,1.39-0.54s1.01,0.18,1.39,0.54c0.38,0.36,0.58,0.79,0.58,1.3c0,0.51-0.19,0.94-0.58,1.3
					C179.44,12.04,178.98,12.22,178.44,12.22z M176.61,27.05V13.91h3.65v13.14H176.61z"/>
				<path class="st0" d="M194.09,17.66l-3.34,0.21c-0.06-0.29-0.18-0.54-0.37-0.77c-0.19-0.23-0.43-0.42-0.74-0.56
					s-0.67-0.21-1.09-0.21c-0.56,0-1.04,0.12-1.43,0.36c-0.39,0.24-0.58,0.55-0.58,0.95c0,0.31,0.13,0.58,0.38,0.8
					s0.68,0.39,1.29,0.52l2.38,0.48c1.28,0.26,2.23,0.68,2.86,1.27c0.63,0.58,0.94,1.35,0.94,2.29c0,0.86-0.25,1.62-0.76,2.27
					c-0.5,0.65-1.19,1.16-2.07,1.52c-0.88,0.36-1.88,0.54-3.02,0.54c-1.74,0-3.12-0.36-4.15-1.09c-1.03-0.73-1.63-1.72-1.81-2.97
					l3.58-0.19c0.11,0.53,0.37,0.93,0.79,1.21c0.42,0.28,0.95,0.42,1.6,0.42c0.64,0,1.15-0.12,1.54-0.37s0.59-0.57,0.59-0.96
					c-0.01-0.33-0.15-0.6-0.42-0.82s-0.7-0.38-1.27-0.49l-2.28-0.45c-1.28-0.26-2.24-0.7-2.86-1.33c-0.62-0.63-0.94-1.44-0.94-2.42
					c0-0.84,0.23-1.57,0.69-2.18c0.46-0.61,1.11-1.08,1.94-1.41c0.84-0.33,1.81-0.5,2.94-0.5c1.66,0,2.97,0.35,3.92,1.05
					C193.38,15.5,193.94,16.45,194.09,17.66z"/>
				<path class="st0" d="M206.03,27.3c-0.84,0-1.59-0.15-2.24-0.44c-0.66-0.29-1.17-0.73-1.55-1.31c-0.38-0.58-0.57-1.3-0.57-2.17
					c0-0.73,0.13-1.34,0.4-1.84s0.63-0.9,1.1-1.2c0.46-0.3,0.99-0.53,1.58-0.68s1.21-0.26,1.86-0.33c0.76-0.08,1.38-0.16,1.85-0.23
					c0.47-0.07,0.81-0.18,1.02-0.32s0.32-0.35,0.32-0.63v-0.05c0-0.54-0.17-0.96-0.51-1.26c-0.34-0.3-0.82-0.45-1.44-0.45
					c-0.66,0-1.18,0.14-1.57,0.43c-0.39,0.29-0.64,0.65-0.77,1.08l-3.37-0.27c0.17-0.8,0.51-1.49,1.01-2.07s1.15-1.04,1.95-1.35
					c0.8-0.32,1.72-0.48,2.77-0.48c0.73,0,1.43,0.09,2.1,0.26c0.67,0.17,1.27,0.44,1.79,0.8c0.52,0.36,0.93,0.82,1.24,1.38
					s0.45,1.23,0.45,2.01v8.86h-3.46v-1.82h-0.1c-0.21,0.41-0.49,0.77-0.85,1.08c-0.35,0.31-0.78,0.55-1.27,0.73
					S206.68,27.3,206.03,27.3z M207.07,24.79c0.54,0,1.01-0.11,1.42-0.32c0.41-0.21,0.73-0.5,0.97-0.87
					c0.23-0.36,0.35-0.78,0.35-1.24v-1.39c-0.11,0.07-0.27,0.14-0.47,0.2c-0.2,0.06-0.42,0.11-0.66,0.16
					c-0.25,0.05-0.49,0.09-0.74,0.13c-0.25,0.04-0.47,0.07-0.67,0.1c-0.43,0.06-0.8,0.16-1.12,0.3c-0.32,0.14-0.57,0.32-0.74,0.55
					c-0.18,0.23-0.27,0.52-0.27,0.86c0,0.5,0.18,0.87,0.54,1.13C206.05,24.66,206.51,24.79,207.07,24.79z"/>
				<path class="st0" d="M232.78,17.66l-3.34,0.21c-0.06-0.29-0.18-0.54-0.37-0.77c-0.19-0.23-0.44-0.42-0.74-0.56
					s-0.67-0.21-1.09-0.21c-0.56,0-1.04,0.12-1.43,0.36c-0.39,0.24-0.58,0.55-0.58,0.95c0,0.31,0.13,0.58,0.38,0.8
					s0.68,0.39,1.29,0.52l2.38,0.48c1.28,0.26,2.23,0.68,2.86,1.27c0.63,0.58,0.94,1.35,0.94,2.29c0,0.86-0.25,1.62-0.76,2.27
					c-0.5,0.65-1.2,1.16-2.07,1.52c-0.88,0.36-1.88,0.54-3.02,0.54c-1.74,0-3.12-0.36-4.15-1.09c-1.03-0.73-1.63-1.72-1.81-2.97
					l3.58-0.19c0.11,0.53,0.37,0.93,0.79,1.21c0.42,0.28,0.95,0.42,1.6,0.42c0.64,0,1.15-0.12,1.54-0.37s0.59-0.57,0.59-0.96
					c-0.01-0.33-0.15-0.6-0.42-0.82c-0.27-0.21-0.7-0.38-1.27-0.49l-2.28-0.45c-1.28-0.26-2.24-0.7-2.86-1.33
					c-0.62-0.63-0.94-1.44-0.94-2.42c0-0.84,0.23-1.57,0.69-2.18s1.11-1.08,1.94-1.41c0.84-0.33,1.82-0.5,2.94-0.5
					c1.66,0,2.97,0.35,3.92,1.05S232.62,16.45,232.78,17.66z"/>
				<path class="st0" d="M241.32,27.31c-1.33,0-2.48-0.28-3.44-0.85s-1.71-1.36-2.24-2.38c-0.52-1.02-0.79-2.2-0.79-3.55
					c0-1.36,0.26-2.55,0.79-3.56c0.52-1.02,1.27-1.81,2.24-2.38s2.11-0.85,3.44-0.85s2.48,0.28,3.44,0.85
					c0.97,0.57,1.71,1.36,2.24,2.38c0.52,1.02,0.79,2.21,0.79,3.56c0,1.35-0.26,2.53-0.79,3.55c-0.53,1.02-1.27,1.81-2.24,2.38
					C243.8,27.03,242.65,27.31,241.32,27.31z M241.34,24.49c0.6,0,1.11-0.17,1.51-0.52c0.4-0.35,0.71-0.82,0.92-1.42
					c0.21-0.6,0.31-1.28,0.31-2.04c0-0.76-0.1-1.45-0.31-2.04c-0.21-0.6-0.52-1.07-0.92-1.42c-0.4-0.35-0.91-0.52-1.51-0.52
					c-0.61,0-1.12,0.17-1.54,0.52c-0.41,0.35-0.72,0.82-0.93,1.42c-0.21,0.6-0.31,1.28-0.31,2.04c0,0.76,0.1,1.45,0.31,2.04
					c0.21,0.6,0.52,1.07,0.93,1.42C240.22,24.32,240.73,24.49,241.34,24.49z"/>
				<path class="st0" d="M256.11,27.31c-1.35,0-2.5-0.29-3.47-0.86s-1.71-1.37-2.22-2.39c-0.52-1.02-0.77-2.2-0.77-3.53
					c0-1.35,0.26-2.53,0.78-3.55c0.52-1.02,1.26-1.81,2.23-2.39s2.11-0.86,3.44-0.86c1.15,0,2.15,0.21,3.01,0.62s1.54,1,2.04,1.75
					s0.78,1.64,0.83,2.65h-3.44c-0.1-0.66-0.35-1.18-0.77-1.59c-0.41-0.4-0.95-0.6-1.62-0.6c-0.56,0-1.06,0.15-1.48,0.46
					c-0.42,0.3-0.75,0.75-0.98,1.33s-0.35,1.29-0.35,2.11c0,0.84,0.12,1.55,0.35,2.14c0.23,0.59,0.56,1.04,0.98,1.34
					c0.42,0.31,0.92,0.46,1.48,0.46c0.42,0,0.79-0.08,1.12-0.26c0.33-0.17,0.61-0.42,0.83-0.75c0.22-0.33,0.36-0.72,0.43-1.19h3.44
					c-0.06,1-0.33,1.89-0.82,2.65c-0.49,0.76-1.16,1.36-2.01,1.78S257.28,27.31,256.11,27.31z"/>
				<path class="st0" d="M266.15,12.22c-0.54,0-1.01-0.18-1.39-0.54c-0.39-0.36-0.58-0.8-0.58-1.3c0-0.5,0.19-0.93,0.58-1.3
					c0.38-0.36,0.85-0.54,1.39-0.54s1.01,0.18,1.39,0.54c0.39,0.36,0.58,0.79,0.58,1.3c0,0.51-0.19,0.94-0.58,1.3
					C267.16,12.04,266.69,12.22,266.15,12.22z M264.32,27.05V13.91h3.65v13.14H264.32z"/>
				<path class="st0" d="M274.62,27.3c-0.84,0-1.59-0.15-2.24-0.44c-0.66-0.29-1.17-0.73-1.55-1.31c-0.38-0.58-0.57-1.3-0.57-2.17
					c0-0.73,0.13-1.34,0.4-1.84s0.63-0.9,1.1-1.2c0.46-0.3,0.99-0.53,1.58-0.68s1.21-0.26,1.86-0.33c0.76-0.08,1.38-0.16,1.85-0.23
					c0.47-0.07,0.81-0.18,1.02-0.32s0.32-0.35,0.32-0.63v-0.05c0-0.54-0.17-0.96-0.51-1.26c-0.34-0.3-0.82-0.45-1.44-0.45
					c-0.66,0-1.18,0.14-1.57,0.43c-0.39,0.29-0.64,0.65-0.77,1.08l-3.37-0.27c0.17-0.8,0.51-1.49,1.01-2.07s1.15-1.04,1.95-1.35
					c0.8-0.32,1.72-0.48,2.77-0.48c0.73,0,1.43,0.09,2.1,0.26c0.67,0.17,1.27,0.44,1.79,0.8c0.52,0.36,0.93,0.82,1.24,1.38
					s0.45,1.23,0.45,2.01v8.86h-3.46v-1.82h-0.1c-0.21,0.41-0.49,0.77-0.85,1.08c-0.35,0.31-0.78,0.55-1.27,0.73
					S275.27,27.3,274.62,27.3z M275.67,24.79c0.54,0,1.01-0.11,1.42-0.32c0.41-0.21,0.73-0.5,0.97-0.87
					c0.23-0.36,0.35-0.78,0.35-1.24v-1.39c-0.11,0.07-0.27,0.14-0.47,0.2c-0.2,0.06-0.42,0.11-0.66,0.16
					c-0.25,0.05-0.49,0.09-0.74,0.13c-0.25,0.04-0.47,0.07-0.67,0.1c-0.43,0.06-0.8,0.16-1.12,0.3c-0.32,0.14-0.57,0.32-0.74,0.55
					c-0.18,0.23-0.27,0.52-0.27,0.86c0,0.5,0.18,0.87,0.54,1.13C274.65,24.66,275.11,24.79,275.67,24.79z"/>
				<path class="st0" d="M288.5,9.53v17.52h-3.65V9.53H288.5z"/>
				<path class="st0" d="M309.25,13.91l-4.59,13.14h-4.11l-4.59-13.14h3.85l2.73,9.4h0.14l2.72-9.4H309.25z"/>
				<path class="st0" d="M312.94,12.22c-0.54,0-1.01-0.18-1.39-0.54c-0.39-0.36-0.58-0.8-0.58-1.3c0-0.5,0.19-0.93,0.58-1.3
					c0.38-0.36,0.85-0.54,1.39-0.54s1.01,0.18,1.39,0.54c0.38,0.36,0.58,0.79,0.58,1.3c0,0.51-0.19,0.94-0.58,1.3
					C313.95,12.04,313.49,12.22,312.94,12.22z M311.11,27.05V13.91h3.65v13.14H311.11z"/>
				<path class="st0" d="M317.67,27.05V13.91h3.53v2.29h0.14c0.24-0.82,0.64-1.43,1.21-1.85c0.56-0.42,1.21-0.63,1.95-0.63
					c0.18,0,0.38,0.01,0.59,0.03s0.4,0.05,0.56,0.09v3.23c-0.17-0.05-0.41-0.1-0.71-0.14c-0.3-0.04-0.58-0.06-0.83-0.06
					c-0.54,0-1.01,0.12-1.43,0.35c-0.42,0.23-0.75,0.55-0.99,0.96c-0.24,0.41-0.36,0.88-0.36,1.42v7.44H317.67z"/>
				<path class="st0" d="M335.16,13.91v2.74h-7.91v-2.74H335.16z M329.05,10.76h3.64v12.25c0,0.34,0.05,0.6,0.15,0.78
					c0.1,0.19,0.25,0.32,0.43,0.39c0.19,0.07,0.4,0.11,0.65,0.11c0.17,0,0.34-0.02,0.51-0.05s0.3-0.06,0.39-0.07l0.57,2.71
					c-0.18,0.06-0.44,0.12-0.77,0.2c-0.33,0.08-0.73,0.12-1.21,0.14c-0.88,0.03-1.65-0.08-2.31-0.35c-0.66-0.27-1.17-0.68-1.54-1.25
					c-0.37-0.57-0.54-1.28-0.54-2.14V10.76z"/>
				<path class="st0" d="M345.96,21.46v-7.55h3.64v13.14h-3.5v-2.39h-0.14c-0.3,0.77-0.79,1.39-1.48,1.86
					c-0.69,0.47-1.52,0.7-2.51,0.7c-0.88,0-1.65-0.2-2.32-0.6s-1.19-0.97-1.56-1.7c-0.37-0.74-0.56-1.62-0.57-2.64v-8.37h3.64v7.72
					c0.01,0.78,0.21,1.39,0.62,1.84s0.96,0.68,1.65,0.68c0.44,0,0.85-0.1,1.23-0.3c0.38-0.2,0.69-0.5,0.93-0.9
					S345.97,22.05,345.96,21.46z"/>
				<path class="st0" d="M356.26,27.3c-0.84,0-1.59-0.15-2.24-0.44c-0.66-0.29-1.17-0.73-1.55-1.31c-0.38-0.58-0.57-1.3-0.57-2.17
					c0-0.73,0.13-1.34,0.4-1.84c0.27-0.5,0.63-0.9,1.1-1.2c0.46-0.3,0.99-0.53,1.58-0.68c0.59-0.15,1.21-0.26,1.86-0.33
					c0.76-0.08,1.38-0.16,1.85-0.23s0.81-0.18,1.02-0.32s0.32-0.35,0.32-0.63v-0.05c0-0.54-0.17-0.96-0.51-1.26
					c-0.34-0.3-0.82-0.45-1.44-0.45c-0.66,0-1.18,0.14-1.57,0.43c-0.39,0.29-0.65,0.65-0.77,1.08l-3.37-0.27
					c0.17-0.8,0.51-1.49,1.01-2.07s1.15-1.04,1.95-1.35c0.8-0.32,1.72-0.48,2.77-0.48c0.73,0,1.43,0.09,2.1,0.26s1.27,0.44,1.79,0.8
					s0.93,0.82,1.24,1.38s0.45,1.23,0.45,2.01v8.86h-3.46v-1.82h-0.1c-0.21,0.41-0.49,0.77-0.85,1.08
					c-0.35,0.31-0.78,0.55-1.27,0.73C357.49,27.22,356.91,27.3,356.26,27.3z M357.31,24.79c0.54,0,1.01-0.11,1.42-0.32
					c0.41-0.21,0.73-0.5,0.97-0.87c0.23-0.36,0.35-0.78,0.35-1.24v-1.39c-0.11,0.07-0.27,0.14-0.47,0.2
					c-0.2,0.06-0.42,0.11-0.66,0.16c-0.25,0.05-0.49,0.09-0.74,0.13s-0.47,0.07-0.67,0.1c-0.43,0.06-0.8,0.16-1.12,0.3
					c-0.32,0.14-0.57,0.32-0.74,0.55c-0.18,0.23-0.27,0.52-0.27,0.86c0,0.5,0.18,0.87,0.54,1.13
					C356.29,24.66,356.75,24.79,357.31,24.79z"/>
				<path class="st0" d="M370.14,9.53v17.52h-3.65V9.53H370.14z"/>
				<path class="st0" d="M381.23,27.05l-3.58-13.14h3.69l2.04,8.83h0.12l2.12-8.83h3.62l2.16,8.78h0.11l2-8.78h3.68l-3.57,13.14
					h-3.86l-2.26-8.26h-0.16l-2.26,8.26H381.23z"/>
				<path class="st0" d="M404.73,27.31c-1.33,0-2.48-0.28-3.44-0.85s-1.71-1.36-2.24-2.38c-0.52-1.02-0.79-2.2-0.79-3.55
					c0-1.36,0.26-2.55,0.79-3.56c0.52-1.02,1.27-1.81,2.24-2.38s2.11-0.85,3.44-0.85c1.33,0,2.48,0.28,3.44,0.85
					s1.71,1.36,2.24,2.38c0.52,1.02,0.79,2.21,0.79,3.56c0,1.35-0.26,2.53-0.79,3.55c-0.52,1.02-1.27,1.81-2.24,2.38
					S406.06,27.31,404.73,27.31z M404.75,24.49c0.6,0,1.11-0.17,1.51-0.52c0.4-0.35,0.71-0.82,0.92-1.42
					c0.21-0.6,0.31-1.28,0.31-2.04c0-0.76-0.1-1.45-0.31-2.04c-0.21-0.6-0.52-1.07-0.92-1.42c-0.41-0.35-0.91-0.52-1.51-0.52
					c-0.61,0-1.12,0.17-1.54,0.52c-0.41,0.35-0.72,0.82-0.93,1.42c-0.21,0.6-0.31,1.28-0.31,2.04c0,0.76,0.1,1.45,0.31,2.04
					c0.21,0.6,0.52,1.07,0.93,1.42C403.63,24.32,404.14,24.49,404.75,24.49z"/>
				<path class="st0" d="M413.58,27.05V13.91h3.53v2.29h0.14c0.24-0.82,0.64-1.43,1.21-1.85c0.56-0.42,1.21-0.63,1.95-0.63
					c0.18,0,0.38,0.01,0.59,0.03s0.4,0.05,0.56,0.09v3.23c-0.17-0.05-0.41-0.1-0.71-0.14c-0.3-0.04-0.58-0.06-0.83-0.06
					c-0.54,0-1.01,0.12-1.43,0.35c-0.42,0.23-0.75,0.55-0.99,0.96s-0.36,0.88-0.36,1.42v7.44H413.58z"/>
				<path class="st0" d="M427.07,9.53v17.52h-3.64V9.53H427.07z"/>
				<path class="st0" d="M434.82,27.27c-1,0-1.9-0.26-2.71-0.77c-0.81-0.52-1.45-1.28-1.92-2.28s-0.71-2.24-0.71-3.71
					c0-1.51,0.24-2.76,0.73-3.76s1.13-1.75,1.94-2.25s1.69-0.75,2.66-0.75c0.74,0,1.35,0.12,1.84,0.37c0.49,0.25,0.89,0.56,1.2,0.92
					c0.31,0.37,0.54,0.73,0.7,1.08h0.11V9.53h3.64v17.52h-3.59v-2.1h-0.15c-0.17,0.37-0.41,0.73-0.72,1.08
					c-0.31,0.36-0.71,0.65-1.21,0.89C436.13,27.15,435.53,27.27,434.82,27.27z M435.98,24.37c0.59,0,1.08-0.16,1.49-0.48
					c0.41-0.32,0.72-0.77,0.94-1.36s0.33-1.26,0.33-2.04c0-0.78-0.11-1.46-0.33-2.04c-0.22-0.58-0.53-1.02-0.94-1.33
					c-0.41-0.31-0.91-0.47-1.5-0.47c-0.6,0-1.1,0.16-1.51,0.49s-0.72,0.78-0.93,1.35s-0.32,1.24-0.32,2c0,0.76,0.11,1.44,0.32,2.02
					c0.21,0.58,0.52,1.04,0.93,1.37S435.38,24.37,435.98,24.37z"/>
				<path class="st0" d="M454.62,27.3c-0.84,0-1.59-0.15-2.24-0.44s-1.17-0.73-1.55-1.31c-0.38-0.58-0.57-1.3-0.57-2.17
					c0-0.73,0.13-1.34,0.4-1.84s0.63-0.9,1.1-1.2c0.46-0.3,0.99-0.53,1.58-0.68s1.21-0.26,1.86-0.33c0.76-0.08,1.38-0.16,1.85-0.23
					s0.81-0.18,1.02-0.32s0.32-0.35,0.32-0.63v-0.05c0-0.54-0.17-0.96-0.51-1.26c-0.34-0.3-0.82-0.45-1.44-0.45
					c-0.66,0-1.18,0.14-1.57,0.43c-0.39,0.29-0.64,0.65-0.77,1.08l-3.37-0.27c0.17-0.8,0.51-1.49,1.01-2.07s1.15-1.04,1.95-1.35
					c0.8-0.32,1.72-0.48,2.77-0.48c0.73,0,1.43,0.09,2.1,0.26c0.67,0.17,1.27,0.44,1.79,0.8s0.93,0.82,1.24,1.38
					s0.45,1.23,0.45,2.01v8.86h-3.46v-1.82h-0.1c-0.21,0.41-0.49,0.77-0.85,1.08c-0.35,0.31-0.78,0.55-1.27,0.73
					C455.84,27.22,455.27,27.3,454.62,27.3z M455.67,24.79c0.54,0,1.01-0.11,1.42-0.32s0.73-0.5,0.97-0.87
					c0.23-0.36,0.35-0.78,0.35-1.24v-1.39c-0.11,0.07-0.27,0.14-0.47,0.2c-0.2,0.06-0.42,0.11-0.66,0.16
					c-0.25,0.05-0.49,0.09-0.74,0.13c-0.25,0.04-0.47,0.07-0.67,0.1c-0.43,0.06-0.8,0.16-1.12,0.3s-0.57,0.32-0.74,0.55
					c-0.18,0.23-0.27,0.52-0.27,0.86c0,0.5,0.18,0.87,0.54,1.13C454.65,24.66,455.11,24.79,455.67,24.79z"/>
				<path class="st0" d="M468.5,19.46v7.6h-3.65V13.91h3.47v2.32h0.15c0.29-0.76,0.78-1.37,1.46-1.82c0.68-0.45,1.51-0.67,2.49-0.67
					c0.91,0,1.71,0.2,2.39,0.6c0.68,0.4,1.21,0.97,1.58,1.71c0.38,0.74,0.56,1.62,0.56,2.64v8.37h-3.65v-7.72
					c0.01-0.8-0.2-1.43-0.62-1.89c-0.42-0.45-0.99-0.68-1.72-0.68c-0.49,0-0.92,0.11-1.3,0.32s-0.66,0.52-0.87,0.92
					C468.61,18.41,468.5,18.89,468.5,19.46z"/>
				<path class="st0" d="M484.68,27.27c-1,0-1.9-0.26-2.71-0.77c-0.81-0.52-1.45-1.28-1.92-2.28s-0.71-2.24-0.71-3.71
					c0-1.51,0.24-2.76,0.73-3.76c0.48-1,1.13-1.75,1.94-2.25s1.69-0.75,2.66-0.75c0.74,0,1.35,0.12,1.84,0.37
					c0.49,0.25,0.89,0.56,1.2,0.92c0.31,0.37,0.54,0.73,0.7,1.08h0.11V9.53h3.64v17.52h-3.59v-2.1h-0.15
					c-0.17,0.37-0.41,0.73-0.72,1.08s-0.71,0.65-1.21,0.89C485.99,27.15,485.39,27.27,484.68,27.27z M485.83,24.37
					c0.59,0,1.08-0.16,1.49-0.48s0.72-0.77,0.94-1.36c0.22-0.58,0.33-1.26,0.33-2.04c0-0.78-0.11-1.46-0.33-2.04
					s-0.53-1.02-0.94-1.33c-0.41-0.31-0.91-0.47-1.5-0.47c-0.6,0-1.1,0.16-1.51,0.49s-0.72,0.78-0.93,1.35
					c-0.21,0.58-0.32,1.24-0.32,2c0,0.76,0.11,1.44,0.32,2.02c0.21,0.58,0.52,1.04,0.93,1.37C484.73,24.2,485.23,24.37,485.83,24.37
					z"/>
				<path class="st0" d="M507.72,13.91v2.74h-7.91v-2.74H507.72z M501.6,10.76h3.64v12.25c0,0.34,0.05,0.6,0.15,0.78
					c0.1,0.19,0.25,0.32,0.43,0.39c0.19,0.07,0.4,0.11,0.65,0.11c0.17,0,0.34-0.02,0.51-0.05c0.17-0.03,0.3-0.06,0.39-0.07
					l0.57,2.71c-0.18,0.06-0.44,0.12-0.77,0.2c-0.33,0.08-0.73,0.12-1.21,0.14c-0.88,0.03-1.65-0.08-2.31-0.35
					c-0.66-0.27-1.17-0.68-1.54-1.25c-0.37-0.57-0.54-1.28-0.54-2.14V10.76z"/>
				<path class="st0" d="M514.01,19.46v7.6h-3.65V9.53h3.54v6.7h0.15c0.3-0.78,0.78-1.38,1.44-1.83c0.66-0.44,1.49-0.66,2.49-0.66
					c0.91,0,1.71,0.2,2.39,0.59s1.21,0.96,1.59,1.7c0.38,0.74,0.57,1.62,0.56,2.65v8.37h-3.64v-7.72c0-0.81-0.2-1.44-0.61-1.89
					s-0.99-0.68-1.73-0.68c-0.5,0-0.93,0.11-1.31,0.32s-0.68,0.52-0.89,0.92S514.01,18.89,514.01,19.46z"/>
				<path class="st0" d="M531.39,27.31c-1.35,0-2.51-0.28-3.49-0.83c-0.97-0.55-1.72-1.33-2.25-2.34c-0.52-1.01-0.79-2.21-0.79-3.6
					c0-1.35,0.26-2.54,0.79-3.56c0.53-1.02,1.27-1.82,2.22-2.39c0.96-0.57,2.08-0.86,3.37-0.86c0.87,0,1.67,0.14,2.42,0.42
					c0.75,0.28,1.41,0.69,1.97,1.25c0.56,0.55,1,1.25,1.31,2.08c0.31,0.84,0.47,1.81,0.47,2.93v1h-11.1v-2.26h7.67
					c0-0.52-0.11-0.99-0.34-1.39c-0.23-0.41-0.54-0.72-0.95-0.95c-0.4-0.23-0.87-0.35-1.4-0.35c-0.55,0-1.04,0.13-1.47,0.38
					s-0.76,0.59-1,1.02c-0.24,0.42-0.36,0.9-0.37,1.42v2.15c0,0.65,0.12,1.21,0.36,1.69c0.24,0.47,0.59,0.84,1.03,1.09
					c0.45,0.26,0.97,0.39,1.58,0.39c0.4,0,0.78-0.06,1.11-0.17c0.34-0.11,0.62-0.29,0.86-0.51c0.24-0.23,0.42-0.51,0.55-0.84
					l3.37,0.22c-0.17,0.81-0.52,1.52-1.05,2.12c-0.53,0.6-1.21,1.07-2.04,1.4C533.43,27.14,532.48,27.31,531.39,27.31z"/>
				<path class="st0" d="M549.04,19.46v7.6h-3.64V9.53h3.54v6.7h0.15c0.3-0.78,0.78-1.38,1.44-1.83c0.66-0.44,1.49-0.66,2.49-0.66
					c0.91,0,1.71,0.2,2.39,0.59s1.21,0.96,1.59,1.7c0.38,0.74,0.57,1.62,0.56,2.65v8.37h-3.65v-7.72c0.01-0.81-0.2-1.44-0.61-1.89
					c-0.41-0.45-0.99-0.68-1.73-0.68c-0.5,0-0.93,0.11-1.31,0.32c-0.38,0.21-0.68,0.52-0.89,0.92S549.04,18.89,549.04,19.46z"/>
				<path class="st0" d="M566.37,27.31c-1.33,0-2.48-0.28-3.44-0.85s-1.71-1.36-2.24-2.38c-0.52-1.02-0.79-2.2-0.79-3.55
					c0-1.36,0.26-2.55,0.79-3.56c0.52-1.02,1.27-1.81,2.24-2.38s2.12-0.85,3.44-0.85s2.48,0.28,3.44,0.85s1.71,1.36,2.24,2.38
					c0.53,1.02,0.79,2.21,0.79,3.56c0,1.35-0.26,2.53-0.79,3.55c-0.52,1.02-1.27,1.81-2.24,2.38S567.7,27.31,566.37,27.31z
					 M566.39,24.49c0.6,0,1.11-0.17,1.51-0.52c0.41-0.35,0.71-0.82,0.92-1.42c0.21-0.6,0.31-1.28,0.31-2.04
					c0-0.76-0.1-1.45-0.31-2.04c-0.21-0.6-0.51-1.07-0.92-1.42c-0.41-0.35-0.91-0.52-1.51-0.52c-0.61,0-1.12,0.17-1.54,0.52
					c-0.41,0.35-0.72,0.82-0.93,1.42c-0.21,0.6-0.31,1.28-0.31,2.04c0,0.76,0.1,1.45,0.31,2.04c0.21,0.6,0.52,1.07,0.93,1.42
					C565.26,24.32,565.78,24.49,566.39,24.49z"/>
				<path class="st0" d="M575.22,27.05V13.91h3.47v2.32h0.15c0.27-0.77,0.73-1.38,1.37-1.82c0.64-0.45,1.4-0.67,2.29-0.67
					c0.9,0,1.67,0.22,2.3,0.67c0.63,0.45,1.05,1.05,1.27,1.82h0.14c0.27-0.75,0.75-1.36,1.46-1.81c0.7-0.45,1.54-0.68,2.5-0.68
					c1.23,0,2.22,0.39,2.99,1.17c0.77,0.78,1.15,1.88,1.15,3.31v8.84h-3.64v-8.12c0-0.73-0.19-1.28-0.58-1.64
					c-0.39-0.36-0.87-0.55-1.46-0.55c-0.66,0-1.18,0.21-1.55,0.63c-0.37,0.42-0.56,0.97-0.56,1.66v8.03H583v-8.2
					c0-0.64-0.18-1.16-0.55-1.54c-0.37-0.38-0.85-0.57-1.45-0.57c-0.41,0-0.77,0.1-1.09,0.3c-0.32,0.2-0.58,0.48-0.77,0.85
					c-0.19,0.36-0.28,0.79-0.28,1.27v7.89H575.22z"/>
				<path class="st0" d="M603.18,27.31c-1.35,0-2.51-0.28-3.49-0.83c-0.97-0.55-1.72-1.33-2.25-2.34c-0.53-1.01-0.79-2.21-0.79-3.6
					c0-1.35,0.26-2.54,0.79-3.56c0.52-1.02,1.26-1.82,2.22-2.39c0.96-0.57,2.08-0.86,3.37-0.86c0.87,0,1.68,0.14,2.43,0.42
					c0.75,0.28,1.41,0.69,1.97,1.25c0.56,0.55,1,1.25,1.31,2.08c0.31,0.84,0.47,1.81,0.47,2.93v1h-11.1v-2.26h7.67
					c0-0.52-0.11-0.99-0.34-1.39c-0.23-0.41-0.54-0.72-0.95-0.95c-0.4-0.23-0.87-0.35-1.4-0.35c-0.55,0-1.04,0.13-1.47,0.38
					c-0.43,0.25-0.76,0.59-1,1.02s-0.36,0.9-0.37,1.42v2.15c0,0.65,0.12,1.21,0.36,1.69c0.24,0.47,0.59,0.84,1.03,1.09
					c0.45,0.26,0.97,0.39,1.58,0.39c0.41,0,0.78-0.06,1.11-0.17c0.34-0.11,0.62-0.29,0.86-0.51c0.24-0.23,0.42-0.51,0.55-0.84
					l3.37,0.22c-0.17,0.81-0.52,1.52-1.05,2.12c-0.53,0.6-1.21,1.07-2.04,1.4C605.22,27.14,604.26,27.31,603.18,27.31z"/>
				<path class="st0" d="M623.11,27.31c-1.33,0-2.48-0.28-3.44-0.85s-1.71-1.36-2.24-2.38c-0.52-1.02-0.79-2.2-0.79-3.55
					c0-1.36,0.26-2.55,0.79-3.56c0.53-1.02,1.27-1.81,2.24-2.38s2.12-0.85,3.44-0.85s2.48,0.28,3.44,0.85s1.71,1.36,2.24,2.38
					c0.53,1.02,0.79,2.21,0.79,3.56c0,1.35-0.26,2.53-0.79,3.55c-0.52,1.02-1.27,1.81-2.24,2.38S624.44,27.31,623.11,27.31z
					 M623.13,24.49c0.6,0,1.11-0.17,1.51-0.52c0.41-0.35,0.71-0.82,0.92-1.42c0.21-0.6,0.31-1.28,0.31-2.04
					c0-0.76-0.1-1.45-0.31-2.04c-0.21-0.6-0.51-1.07-0.92-1.42c-0.41-0.35-0.91-0.52-1.51-0.52c-0.61,0-1.12,0.17-1.54,0.52
					c-0.41,0.35-0.72,0.82-0.93,1.42c-0.21,0.6-0.31,1.28-0.31,2.04c0,0.76,0.1,1.45,0.31,2.04c0.21,0.6,0.52,1.07,0.93,1.42
					C622.01,24.32,622.52,24.49,623.13,24.49z"/>
				<path class="st0" d="M639.03,13.91v2.74h-8.11v-2.74H639.03z M632.77,27.05V12.96c0-0.95,0.19-1.74,0.56-2.37
					c0.37-0.63,0.89-1.1,1.54-1.41c0.65-0.31,1.39-0.47,2.22-0.47c0.56,0,1.07,0.04,1.54,0.13s0.81,0.16,1.04,0.23l-0.65,2.74
					c-0.14-0.04-0.32-0.09-0.53-0.13c-0.21-0.04-0.42-0.06-0.64-0.06c-0.54,0-0.91,0.12-1.12,0.37s-0.32,0.59-0.32,1.04v14.02
					H632.77z"/>
				<path class="st0" d="M646.91,9.53h4.57l4.83,11.77h0.21l4.83-11.77h4.57v17.52h-3.59V15.65h-0.15l-4.53,11.32h-2.45l-4.53-11.36
					h-0.15v11.45h-3.59V9.53z"/>
				<path class="st0" d="M674.87,27.31c-1.35,0-2.51-0.28-3.49-0.83c-0.97-0.55-1.72-1.33-2.25-2.34s-0.79-2.21-0.79-3.6
					c0-1.35,0.26-2.54,0.79-3.56c0.52-1.02,1.26-1.82,2.22-2.39c0.96-0.57,2.08-0.86,3.37-0.86c0.87,0,1.68,0.14,2.43,0.42
					c0.75,0.28,1.41,0.69,1.97,1.25c0.56,0.55,1,1.25,1.31,2.08c0.31,0.84,0.47,1.81,0.47,2.93v1h-11.1v-2.26h7.67
					c0-0.52-0.11-0.99-0.34-1.39s-0.54-0.72-0.95-0.95c-0.4-0.23-0.87-0.35-1.4-0.35c-0.55,0-1.04,0.13-1.47,0.38s-0.76,0.59-1,1.02
					c-0.24,0.42-0.36,0.9-0.37,1.42v2.15c0,0.65,0.12,1.21,0.36,1.69c0.24,0.47,0.59,0.84,1.03,1.09c0.44,0.26,0.97,0.39,1.58,0.39
					c0.41,0,0.78-0.06,1.11-0.17c0.34-0.11,0.62-0.29,0.86-0.51c0.24-0.23,0.42-0.51,0.55-0.84l3.37,0.22
					c-0.17,0.81-0.52,1.52-1.05,2.12c-0.53,0.6-1.21,1.07-2.04,1.4C676.91,27.14,675.95,27.31,674.87,27.31z"/>
				<path class="st0" d="M690.27,13.91v2.74h-7.92v-2.74H690.27z M684.15,10.76h3.65v12.25c0,0.34,0.05,0.6,0.15,0.78
					c0.1,0.19,0.25,0.32,0.43,0.39c0.18,0.07,0.4,0.11,0.65,0.11c0.17,0,0.34-0.02,0.51-0.05s0.3-0.06,0.39-0.07l0.57,2.71
					c-0.18,0.06-0.44,0.12-0.77,0.2c-0.33,0.08-0.73,0.12-1.21,0.14c-0.88,0.03-1.65-0.08-2.31-0.35c-0.66-0.27-1.17-0.68-1.54-1.25
					c-0.37-0.57-0.54-1.28-0.54-2.14V10.76z"/>
				<path class="st0" d="M696.39,27.3c-0.84,0-1.59-0.15-2.24-0.44s-1.17-0.73-1.55-1.31c-0.38-0.58-0.57-1.3-0.57-2.17
					c0-0.73,0.13-1.34,0.4-1.84s0.63-0.9,1.1-1.2c0.46-0.3,0.99-0.53,1.58-0.68s1.21-0.26,1.86-0.33c0.76-0.08,1.38-0.16,1.85-0.23
					s0.81-0.18,1.02-0.32s0.32-0.35,0.32-0.63v-0.05c0-0.54-0.17-0.96-0.51-1.26c-0.34-0.3-0.82-0.45-1.44-0.45
					c-0.66,0-1.18,0.14-1.57,0.43s-0.64,0.65-0.77,1.08l-3.37-0.27c0.17-0.8,0.51-1.49,1.01-2.07s1.15-1.04,1.95-1.35
					c0.79-0.32,1.72-0.48,2.77-0.48c0.73,0,1.43,0.09,2.1,0.26c0.67,0.17,1.27,0.44,1.79,0.8s0.93,0.82,1.24,1.38
					c0.3,0.56,0.45,1.23,0.45,2.01v8.86h-3.46v-1.82h-0.1c-0.21,0.41-0.49,0.77-0.85,1.08c-0.35,0.31-0.78,0.55-1.27,0.73
					C697.61,27.22,697.04,27.3,696.39,27.3z M697.43,24.79c0.54,0,1.01-0.11,1.42-0.32s0.73-0.5,0.97-0.87
					c0.23-0.36,0.35-0.78,0.35-1.24v-1.39c-0.11,0.07-0.27,0.14-0.47,0.2c-0.2,0.06-0.42,0.11-0.66,0.16
					c-0.25,0.05-0.49,0.09-0.74,0.13s-0.47,0.07-0.67,0.1c-0.43,0.06-0.8,0.16-1.12,0.3s-0.57,0.32-0.74,0.55
					c-0.18,0.23-0.27,0.52-0.27,0.86c0,0.5,0.18,0.87,0.54,1.13C696.41,24.66,696.87,24.79,697.43,24.79z"/>
				<path class="st0" d="M718.39,13.91l-4.59,13.14h-4.11l-4.59-13.14h3.85l2.73,9.4h0.14l2.72-9.4H718.39z"/>
				<path class="st0" d="M725.81,27.31c-1.35,0-2.51-0.28-3.49-0.83c-0.97-0.55-1.72-1.33-2.25-2.34s-0.79-2.21-0.79-3.6
					c0-1.35,0.26-2.54,0.79-3.56c0.52-1.02,1.26-1.82,2.22-2.39c0.96-0.57,2.08-0.86,3.37-0.86c0.87,0,1.68,0.14,2.43,0.42
					c0.75,0.28,1.41,0.69,1.97,1.25c0.56,0.55,1,1.25,1.31,2.08c0.31,0.84,0.47,1.81,0.47,2.93v1h-11.1v-2.26h7.67
					c0-0.52-0.11-0.99-0.34-1.39c-0.23-0.41-0.54-0.72-0.95-0.95c-0.4-0.23-0.87-0.35-1.4-0.35c-0.55,0-1.04,0.13-1.47,0.38
					s-0.76,0.59-1,1.02c-0.24,0.42-0.36,0.9-0.37,1.42v2.15c0,0.65,0.12,1.21,0.36,1.69c0.24,0.47,0.59,0.84,1.03,1.09
					c0.44,0.26,0.97,0.39,1.58,0.39c0.4,0,0.78-0.06,1.11-0.17c0.34-0.11,0.62-0.29,0.86-0.51c0.24-0.23,0.42-0.51,0.55-0.84
					l3.37,0.22c-0.17,0.81-0.52,1.52-1.05,2.12c-0.53,0.6-1.21,1.07-2.04,1.4C727.85,27.14,726.89,27.31,725.81,27.31z"/>
				<path class="st0" d="M734.22,27.05V13.91h3.53v2.29h0.14c0.24-0.82,0.64-1.43,1.21-1.85c0.56-0.42,1.21-0.63,1.95-0.63
					c0.18,0,0.38,0.01,0.59,0.03s0.4,0.05,0.56,0.09v3.23c-0.17-0.05-0.41-0.1-0.71-0.14s-0.58-0.06-0.83-0.06
					c-0.54,0-1.01,0.12-1.43,0.35c-0.42,0.23-0.75,0.55-0.99,0.96c-0.24,0.41-0.36,0.88-0.36,1.42v7.44H734.22z"/>
				<path class="st0" d="M755,17.66l-3.34,0.21c-0.06-0.29-0.18-0.54-0.37-0.77c-0.19-0.23-0.43-0.42-0.74-0.56
					c-0.3-0.14-0.67-0.21-1.09-0.21c-0.56,0-1.04,0.12-1.43,0.36s-0.58,0.55-0.58,0.95c0,0.31,0.13,0.58,0.38,0.8
					s0.68,0.39,1.29,0.52l2.38,0.48c1.28,0.26,2.23,0.68,2.86,1.27c0.63,0.58,0.94,1.35,0.94,2.29c0,0.86-0.25,1.62-0.76,2.27
					s-1.2,1.16-2.07,1.52c-0.88,0.36-1.88,0.54-3.02,0.54c-1.74,0-3.12-0.36-4.15-1.09c-1.03-0.73-1.63-1.72-1.81-2.97l3.58-0.19
					c0.11,0.53,0.37,0.93,0.79,1.21c0.42,0.28,0.95,0.42,1.6,0.42c0.64,0,1.15-0.12,1.54-0.37s0.59-0.57,0.59-0.96
					c-0.01-0.33-0.15-0.6-0.42-0.82c-0.27-0.21-0.7-0.38-1.27-0.49l-2.28-0.45c-1.28-0.26-2.24-0.7-2.86-1.33
					c-0.62-0.63-0.94-1.44-0.94-2.42c0-0.84,0.23-1.57,0.69-2.18c0.46-0.61,1.11-1.08,1.94-1.41c0.84-0.33,1.82-0.5,2.94-0.5
					c1.66,0,2.97,0.35,3.92,1.05C754.29,15.5,754.84,16.45,755,17.66z"/>
				<path class="st0" d="M763.59,27.31c-1.35,0-2.51-0.28-3.49-0.83c-0.97-0.55-1.72-1.33-2.25-2.34c-0.53-1.01-0.79-2.21-0.79-3.6
					c0-1.35,0.26-2.54,0.79-3.56c0.52-1.02,1.26-1.82,2.22-2.39c0.96-0.57,2.08-0.86,3.37-0.86c0.87,0,1.68,0.14,2.43,0.42
					c0.75,0.28,1.41,0.69,1.97,1.25c0.56,0.55,1,1.25,1.31,2.08c0.31,0.84,0.47,1.81,0.47,2.93v1h-11.1v-2.26h7.67
					c0-0.52-0.11-0.99-0.34-1.39c-0.23-0.41-0.54-0.72-0.95-0.95c-0.4-0.23-0.87-0.35-1.4-0.35c-0.55,0-1.04,0.13-1.47,0.38
					c-0.43,0.25-0.76,0.59-1,1.02s-0.36,0.9-0.37,1.42v2.15c0,0.65,0.12,1.21,0.36,1.69c0.24,0.47,0.59,0.84,1.03,1.09
					c0.45,0.26,0.97,0.39,1.58,0.39c0.41,0,0.78-0.06,1.11-0.17c0.34-0.11,0.62-0.29,0.86-0.51c0.24-0.23,0.42-0.51,0.55-0.84
					l3.37,0.22c-0.17,0.81-0.52,1.52-1.05,2.12c-0.53,0.6-1.21,1.07-2.04,1.4C765.63,27.14,764.68,27.31,763.59,27.31z"/>
				<path class="st0" d="M777.66,27.05V9.53h11.6v3.05h-7.9v4.17h7.13v3.05h-7.13v7.24H777.66z"/>
				<path class="st0" d="M795.27,27.3c-0.84,0-1.59-0.15-2.24-0.44c-0.66-0.29-1.17-0.73-1.55-1.31c-0.38-0.58-0.57-1.3-0.57-2.17
					c0-0.73,0.13-1.34,0.4-1.84c0.27-0.5,0.63-0.9,1.09-1.2c0.46-0.3,0.99-0.53,1.58-0.68c0.59-0.15,1.21-0.26,1.86-0.33
					c0.76-0.08,1.38-0.16,1.85-0.23s0.81-0.18,1.02-0.32s0.32-0.35,0.32-0.63v-0.05c0-0.54-0.17-0.96-0.51-1.26
					c-0.34-0.3-0.82-0.45-1.44-0.45c-0.66,0-1.18,0.14-1.57,0.43c-0.39,0.29-0.64,0.65-0.77,1.08l-3.37-0.27
					c0.17-0.8,0.51-1.49,1.01-2.07s1.15-1.04,1.95-1.35c0.8-0.32,1.72-0.48,2.77-0.48c0.73,0,1.43,0.09,2.1,0.26
					c0.67,0.17,1.27,0.44,1.79,0.8c0.52,0.36,0.93,0.82,1.24,1.38c0.3,0.56,0.45,1.23,0.45,2.01v8.86h-3.46v-1.82h-0.1
					c-0.21,0.41-0.49,0.77-0.85,1.08c-0.35,0.31-0.78,0.55-1.27,0.73C796.49,27.22,795.92,27.3,795.27,27.3z M796.31,24.79
					c0.54,0,1.01-0.11,1.42-0.32c0.41-0.21,0.73-0.5,0.97-0.87c0.23-0.36,0.35-0.78,0.35-1.24v-1.39c-0.11,0.07-0.27,0.14-0.47,0.2
					c-0.2,0.06-0.42,0.11-0.66,0.16c-0.25,0.05-0.49,0.09-0.74,0.13s-0.47,0.07-0.67,0.1c-0.43,0.06-0.8,0.16-1.12,0.3
					s-0.57,0.32-0.74,0.55c-0.18,0.23-0.27,0.52-0.27,0.86c0,0.5,0.18,0.87,0.54,1.13C795.29,24.66,795.75,24.79,796.31,24.79z"/>
				<path class="st0" d="M816.44,17.66l-3.34,0.21c-0.06-0.29-0.18-0.54-0.37-0.77c-0.19-0.23-0.43-0.42-0.74-0.56
					c-0.3-0.14-0.67-0.21-1.09-0.21c-0.56,0-1.04,0.12-1.43,0.36s-0.58,0.55-0.58,0.95c0,0.31,0.13,0.58,0.38,0.8
					s0.68,0.39,1.29,0.52l2.38,0.48c1.28,0.26,2.23,0.68,2.86,1.27c0.63,0.58,0.94,1.35,0.94,2.29c0,0.86-0.25,1.62-0.76,2.27
					s-1.19,1.16-2.07,1.52c-0.88,0.36-1.88,0.54-3.02,0.54c-1.74,0-3.12-0.36-4.15-1.09c-1.03-0.73-1.63-1.72-1.81-2.97l3.58-0.19
					c0.11,0.53,0.37,0.93,0.79,1.21c0.42,0.28,0.95,0.42,1.6,0.42c0.64,0,1.15-0.12,1.54-0.37s0.59-0.57,0.59-0.96
					c-0.01-0.33-0.15-0.6-0.42-0.82c-0.27-0.21-0.7-0.38-1.27-0.49l-2.28-0.45c-1.28-0.26-2.24-0.7-2.86-1.33
					c-0.62-0.63-0.94-1.44-0.94-2.42c0-0.84,0.23-1.57,0.69-2.18c0.46-0.61,1.11-1.08,1.94-1.41c0.84-0.33,1.82-0.5,2.94-0.5
					c1.66,0,2.97,0.35,3.92,1.05S816.28,16.45,816.44,17.66z"/>
				<path class="st0" d="M822.68,19.46v7.6h-3.65V9.53h3.54v6.7h0.15c0.3-0.78,0.78-1.38,1.44-1.83c0.66-0.44,1.49-0.66,2.49-0.66
					c0.91,0,1.71,0.2,2.39,0.59s1.21,0.96,1.59,1.7c0.38,0.74,0.57,1.62,0.56,2.65v8.37h-3.64v-7.72c0-0.81-0.2-1.44-0.61-1.89
					s-0.99-0.68-1.73-0.68c-0.5,0-0.93,0.11-1.31,0.32s-0.68,0.52-0.89,0.92S822.69,18.89,822.68,19.46z"/>
				<path class="st0" d="M835.91,12.22c-0.54,0-1-0.18-1.39-0.54c-0.39-0.36-0.58-0.8-0.58-1.3c0-0.5,0.19-0.93,0.58-1.3
					c0.38-0.36,0.85-0.54,1.39-0.54s1.01,0.18,1.39,0.54s0.58,0.79,0.58,1.3c0,0.51-0.19,0.94-0.58,1.3
					C836.91,12.04,836.45,12.22,835.91,12.22z M834.08,27.05V13.91h3.65v13.14H834.08z"/>
				<path class="st0" d="M846.57,27.31c-1.33,0-2.48-0.28-3.44-0.85s-1.71-1.36-2.24-2.38c-0.52-1.02-0.79-2.2-0.79-3.55
					c0-1.36,0.26-2.55,0.79-3.56c0.53-1.02,1.27-1.81,2.24-2.38s2.12-0.85,3.44-0.85s2.48,0.28,3.44,0.85s1.71,1.36,2.24,2.38
					c0.53,1.02,0.79,2.21,0.79,3.56c0,1.35-0.26,2.53-0.79,3.55c-0.52,1.02-1.27,1.81-2.24,2.38S847.9,27.31,846.57,27.31z
					 M846.59,24.49c0.6,0,1.11-0.17,1.51-0.52c0.41-0.35,0.71-0.82,0.92-1.42c0.21-0.6,0.31-1.28,0.31-2.04
					c0-0.76-0.1-1.45-0.31-2.04c-0.21-0.6-0.51-1.07-0.92-1.42c-0.41-0.35-0.91-0.52-1.51-0.52c-0.61,0-1.12,0.17-1.54,0.52
					c-0.41,0.35-0.72,0.82-0.93,1.42c-0.21,0.6-0.31,1.28-0.31,2.04c0,0.76,0.1,1.45,0.31,2.04c0.21,0.6,0.52,1.07,0.93,1.42
					C845.46,24.32,845.98,24.49,846.59,24.49z"/>
				<path class="st0" d="M859.06,19.46v7.6h-3.64V13.91h3.47v2.32h0.15c0.29-0.76,0.78-1.37,1.46-1.82
					c0.68-0.45,1.51-0.67,2.49-0.67c0.91,0,1.71,0.2,2.39,0.6s1.21,0.97,1.58,1.71c0.38,0.74,0.56,1.62,0.56,2.64v8.37h-3.64v-7.72
					c0.01-0.8-0.2-1.43-0.62-1.89c-0.42-0.45-0.99-0.68-1.72-0.68c-0.49,0-0.92,0.11-1.3,0.32c-0.37,0.21-0.66,0.52-0.87,0.92
					S859.07,18.89,859.06,19.46z"/>
				<path class="st0" d="M880,27.05l-5.01-17.52h4.05l2.9,12.17h0.15l3.2-12.17h3.46l3.19,12.2h0.15l2.9-12.2h4.05l-5.01,17.52
					h-3.61l-3.34-11.46h-0.14l-3.33,11.46H880z"/>
				<path class="st0" d="M905.51,27.31c-1.35,0-2.51-0.28-3.49-0.83c-0.97-0.55-1.72-1.33-2.25-2.34c-0.52-1.01-0.79-2.21-0.79-3.6
					c0-1.35,0.26-2.54,0.79-3.56c0.53-1.02,1.26-1.82,2.22-2.39c0.96-0.57,2.08-0.86,3.37-0.86c0.87,0,1.68,0.14,2.43,0.42
					c0.75,0.28,1.41,0.69,1.97,1.25c0.56,0.55,1,1.25,1.31,2.08c0.31,0.84,0.47,1.81,0.47,2.93v1h-11.1v-2.26h7.67
					c0-0.52-0.11-0.99-0.34-1.39c-0.23-0.41-0.54-0.72-0.95-0.95c-0.4-0.23-0.87-0.35-1.4-0.35c-0.55,0-1.04,0.13-1.47,0.38
					s-0.76,0.59-1,1.02c-0.24,0.42-0.36,0.9-0.37,1.42v2.15c0,0.65,0.12,1.21,0.36,1.69s0.59,0.84,1.03,1.09
					c0.45,0.26,0.97,0.39,1.58,0.39c0.4,0,0.78-0.06,1.11-0.17c0.34-0.11,0.62-0.29,0.86-0.51c0.24-0.23,0.42-0.51,0.55-0.84
					l3.37,0.22c-0.17,0.81-0.52,1.52-1.05,2.12c-0.53,0.6-1.21,1.07-2.04,1.4C907.55,27.14,906.59,27.31,905.51,27.31z"/>
				<path class="st0" d="M919.91,27.31c-1.35,0-2.51-0.28-3.49-0.83c-0.97-0.55-1.72-1.33-2.25-2.34c-0.53-1.01-0.79-2.21-0.79-3.6
					c0-1.35,0.26-2.54,0.79-3.56c0.52-1.02,1.26-1.82,2.22-2.39c0.96-0.57,2.08-0.86,3.37-0.86c0.87,0,1.68,0.14,2.43,0.42
					c0.75,0.28,1.41,0.69,1.97,1.25c0.56,0.55,1,1.25,1.31,2.08c0.31,0.84,0.47,1.81,0.47,2.93v1h-11.1v-2.26h7.67
					c0-0.52-0.11-0.99-0.34-1.39c-0.23-0.41-0.54-0.72-0.95-0.95c-0.4-0.23-0.87-0.35-1.4-0.35c-0.55,0-1.04,0.13-1.47,0.38
					c-0.43,0.25-0.76,0.59-1,1.02s-0.36,0.9-0.37,1.42v2.15c0,0.65,0.12,1.21,0.36,1.69c0.24,0.47,0.59,0.84,1.03,1.09
					c0.45,0.26,0.97,0.39,1.58,0.39c0.41,0,0.78-0.06,1.11-0.17c0.34-0.11,0.62-0.29,0.86-0.51c0.24-0.23,0.42-0.51,0.55-0.84
					l3.37,0.22c-0.17,0.81-0.52,1.52-1.05,2.12c-0.53,0.6-1.21,1.07-2.04,1.4C921.95,27.14,920.99,27.31,919.91,27.31z"/>
				<path class="st0" d="M928.32,27.05V9.53h3.65v17.52H928.32z M931.62,23.27l0.01-4.37h0.53l4.21-4.99h4.18l-5.66,6.6h-0.86
					L931.62,23.27z M936.54,27.05l-3.87-5.72l2.43-2.58l5.71,8.3H936.54z"/>
				<path class="st0" d="M944.47,27.28c-0.57,0-1.05-0.2-1.45-0.6c-0.4-0.4-0.6-0.89-0.6-1.45c0-0.56,0.2-1.04,0.6-1.44
					c0.4-0.4,0.88-0.6,1.45-0.6c0.55,0,1.03,0.2,1.44,0.6c0.41,0.4,0.62,0.88,0.62,1.44c0,0.38-0.1,0.72-0.29,1.03
					c-0.19,0.31-0.44,0.56-0.75,0.74C945.18,27.18,944.84,27.28,944.47,27.28z"/>
			</g>
		</g>
	</g>
</g>
</svg>
