<?xml version="1.0" encoding="utf-8"?>
<!-- Generator: Adobe Illustrator 27.9.4, SVG Export Plug-In . SVG Version: 9.03 Build 54784)  -->
<svg version="1.1" id="Capa_1" xmlns="http://www.w3.org/2000/svg" xmlns:xlink="http://www.w3.org/1999/xlink" x="0px" y="0px"
	 viewBox="0 0 806 110" style="enable-background:new 0 0 806 110;" xml:space="preserve">
<style type="text/css">
	.st0{fill:#EBECFA;}
	.st1{fill:none;stroke:#EBECFA;stroke-width:2.0615;stroke-miterlimit:10;}
	.st2{font-family:'Inter-Bold';}
	.st3{font-size:21.7854px;}
	.st4{fill:#081116;}
</style>
<g>
	<g>
		<g>
			<path class="st0" d="M213.95,50.08H33.86c-10.88,0-19.7-8.82-19.7-19.7v-0.87c0-10.88,8.82-19.7,19.7-19.7h180.09V50.08z"/>
		</g>
		<g>
			<rect x="224.17" y="9.82" class="st1" width="296.12" height="40.26"/>
			<g>
				<g>
					<text transform="matrix(1 0 0 1 258.3999 38.4291)" class="st0 st2 st3">FRONT ROW ACCESS</text>
				</g>
			</g>
		</g>
		<g>
			<path class="st1" d="M771.26,50.08H530.51V9.82h240.74c10.88,0,19.7,8.82,19.7,19.7v0.87C790.96,41.27,782.14,50.08,771.26,50.08
				z"/>
			<g>
				<g>
					<text transform="matrix(1 0 0 1 564.7407 38.4271)" class="st0 st2 st3">ICONIC RUNWAYS</text>
				</g>
			</g>
		</g>
		<g>
			<g>
				<text transform="matrix(1 0 0 1 48.3892 38.4271)" class="st4 st2 st3">FREE ENTRY</text>
			</g>
		</g>
	</g>
	<g>
		<g>
			<path class="st0" d="M584.53,101.18H276.51V60.92h308.02c10.88,0,19.7,8.82,19.7,19.7v0.87
				C604.23,92.36,595.41,101.18,584.53,101.18z"/>
		</g>
		<g>
			<path class="st1" d="M266.29,101.18H33.86c-10.88,0-19.7-8.82-19.7-19.7v-0.87c0-10.88,8.82-19.7,19.7-19.7h232.43V101.18z"/>
			<g>
				<g>
					<text transform="matrix(1 0 0 1 48.3867 89.5209)" class="st0 st2 st3">EPIC GIVEAWAYS</text>
				</g>
			</g>
		</g>
		<g>
			<g>
				<text transform="matrix(1 0 0 1 310.7354 89.5209)" class="st4 st2 st3">INSIDER CAREER TALKS</text>
			</g>
		</g>
	</g>
</g>
</svg>
