<svg width="806" height="110" viewBox="0 0 806 110" fill="none" xmlns="http://www.w3.org/2000/svg">
<path d="M213.95 50.0825H33.8599C22.9799 50.0825 14.1599 41.2625 14.1599 30.3825V29.5125C14.1599 18.6325 22.9799 9.8125 33.8599 9.8125H213.95V50.0825Z" fill="#EBECFA"/>
<path d="M520.29 9.82031H224.17V50.0803H520.29V9.82031Z" stroke="#EBECFA" stroke-width="2.0615" stroke-miterlimit="10"/>
<path d="M259.777 37.6406V21.7967H270.267V24.5586H263.127V28.3339H269.571V31.0957H263.127V37.6406H259.777ZM272.521 37.6406V21.7967H278.771C279.968 21.7967 280.989 22.0107 281.835 22.4388C282.686 22.8617 283.333 23.4626 283.777 24.2414C284.226 25.015 284.45 25.9253 284.45 26.9723C284.45 28.0244 284.223 28.9296 283.769 29.6877C283.315 30.4407 282.658 31.0184 281.796 31.4206C280.94 31.8229 279.904 32.0241 278.686 32.0241H274.501V29.3318H278.145C278.784 29.3318 279.316 29.2442 279.739 29.0688C280.161 28.8935 280.476 28.6304 280.682 28.2797C280.894 27.929 281 27.4932 281 26.9723C281 26.4462 280.894 26.0027 280.682 25.6416C280.476 25.2806 280.159 25.0073 279.731 24.8216C279.308 24.6308 278.774 24.5353 278.129 24.5353H275.87V37.6406H272.521ZM281.077 30.4304L285.015 37.6406H281.317L277.464 30.4304H281.077ZM301.377 29.7187C301.377 31.4464 301.049 32.9163 300.394 34.1283C299.745 35.3404 298.857 36.2661 297.733 36.9057C296.614 37.5401 295.356 37.8572 293.958 37.8572C292.55 37.8572 291.286 37.5375 290.167 36.8979C289.048 36.2584 288.163 35.3326 287.514 34.1206C286.864 32.9086 286.539 31.4413 286.539 29.7187C286.539 27.9909 286.864 26.521 287.514 25.309C288.163 24.097 289.048 23.1738 290.167 22.5394C291.286 21.8998 292.55 21.5801 293.958 21.5801C295.356 21.5801 296.614 21.8998 297.733 22.5394C298.857 23.1738 299.745 24.097 300.394 25.309C301.049 26.521 301.377 27.9909 301.377 29.7187ZM297.981 29.7187C297.981 28.5995 297.813 27.6556 297.478 26.8872C297.148 26.1187 296.681 25.5359 296.078 25.1388C295.474 24.7416 294.768 24.5431 293.958 24.5431C293.148 24.5431 292.442 24.7416 291.838 25.1388C291.235 25.5359 290.765 26.1187 290.43 26.8872C290.1 27.6556 289.935 28.5995 289.935 29.7187C289.935 30.8378 290.1 31.7817 290.43 32.5501C290.765 33.3186 291.235 33.9014 291.838 34.2985C292.442 34.6957 293.148 34.8942 293.958 34.8942C294.768 34.8942 295.474 34.6957 296.078 34.2985C296.681 33.9014 297.148 33.3186 297.478 32.5501C297.813 31.7817 297.981 30.8378 297.981 29.7187ZM317.111 21.7967V37.6406H314.217L307.324 27.6685H307.208V37.6406H303.858V21.7967H306.798L313.637 31.761H313.776V21.7967H317.111ZM319.275 24.5586V21.7967H332.287V24.5586H327.437V37.6406H324.126V24.5586H319.275ZM339.472 37.6406V21.7967H345.723C346.92 21.7967 347.941 22.0107 348.787 22.4388C349.638 22.8617 350.285 23.4626 350.729 24.2414C351.177 25.015 351.402 25.9253 351.402 26.9723C351.402 28.0244 351.175 28.9296 350.721 29.6877C350.267 30.4407 349.61 31.0184 348.748 31.4206C347.892 31.8229 346.855 32.0241 345.638 32.0241H341.453V29.3318H345.097C345.736 29.3318 346.267 29.2442 346.69 29.0688C347.113 28.8935 347.428 28.6304 347.634 28.2797C347.846 27.929 347.951 27.4932 347.951 26.9723C347.951 26.4462 347.846 26.0027 347.634 25.6416C347.428 25.2806 347.111 25.0073 346.683 24.8216C346.26 24.6308 345.726 24.5353 345.081 24.5353H342.822V37.6406H339.472ZM348.029 30.4304L351.966 37.6406H348.269L344.416 30.4304H348.029ZM368.329 29.7187C368.329 31.4464 368.001 32.9163 367.346 34.1283C366.696 35.3404 365.809 36.2661 364.685 36.9057C363.566 37.5401 362.307 37.8572 360.91 37.8572C359.502 37.8572 358.238 37.5375 357.119 36.8979C356 36.2584 355.115 35.3326 354.465 34.1206C353.815 32.9086 353.491 31.4413 353.491 29.7187C353.491 27.9909 353.815 26.521 354.465 25.309C355.115 24.097 356 23.1738 357.119 22.5394C358.238 21.8998 359.502 21.5801 360.91 21.5801C362.307 21.5801 363.566 21.8998 364.685 22.5394C365.809 23.1738 366.696 24.097 367.346 25.309C368.001 26.521 368.329 27.9909 368.329 29.7187ZM364.933 29.7187C364.933 28.5995 364.765 27.6556 364.43 26.8872C364.1 26.1187 363.633 25.5359 363.029 25.1388C362.426 24.7416 361.719 24.5431 360.91 24.5431C360.1 24.5431 359.393 24.7416 358.79 25.1388C358.186 25.5359 357.717 26.1187 357.382 26.8872C357.052 27.6556 356.887 28.5995 356.887 29.7187C356.887 30.8378 357.052 31.7817 357.382 32.5501C357.717 33.3186 358.186 33.9014 358.79 34.2985C359.393 34.6957 360.1 34.8942 360.91 34.8942C361.719 34.8942 362.426 34.6957 363.029 34.2985C363.633 33.9014 364.1 33.3186 364.43 32.5501C364.765 31.7817 364.933 30.8378 364.933 29.7187ZM373.781 37.6406L369.247 21.7967H372.907L375.529 32.8054H375.661L378.554 21.7967H381.687L384.573 32.8287H384.712L387.335 21.7967H390.994L386.461 37.6406H383.196L380.179 27.2817H380.055L377.046 37.6406H373.781ZM400.56 37.6406H396.97L402.44 21.7967H406.757L412.219 37.6406H408.629L404.66 25.4173H404.537L400.56 37.6406ZM400.336 31.4129H408.815V34.0278H400.336V31.4129ZM427.361 27.3436H423.972C423.91 26.9052 423.784 26.5158 423.593 26.1754C423.402 25.8299 423.157 25.5359 422.858 25.2935C422.559 25.0511 422.213 24.8654 421.821 24.7365C421.435 24.6076 421.014 24.5431 420.56 24.5431C419.74 24.5431 419.026 24.7468 418.417 25.1542C417.809 25.5565 417.337 26.1445 417.002 26.9181C416.666 27.6866 416.499 28.6201 416.499 29.7187C416.499 30.8482 416.666 31.7971 417.002 32.5656C417.342 33.3341 417.817 33.9143 418.425 34.3063C419.034 34.6983 419.738 34.8942 420.537 34.8942C420.986 34.8942 421.401 34.8349 421.783 34.7163C422.169 34.5977 422.512 34.4249 422.812 34.198C423.111 33.9659 423.358 33.6848 423.554 33.3547C423.755 33.0246 423.895 32.6481 423.972 32.2252L427.361 32.2407C427.273 32.9679 427.054 33.6693 426.703 34.345C426.357 35.0154 425.891 35.6163 425.303 36.1475C424.72 36.6736 424.024 37.0913 423.214 37.4008C422.409 37.7051 421.499 37.8572 420.483 37.8572C419.07 37.8572 417.806 37.5375 416.692 36.8979C415.583 36.2584 414.707 35.3326 414.062 34.1206C413.422 32.9086 413.103 31.4413 413.103 29.7187C413.103 27.9909 413.427 26.521 414.077 25.309C414.727 24.097 415.609 23.1738 416.723 22.5394C417.837 21.8998 419.09 21.5801 420.483 21.5801C421.401 21.5801 422.252 21.709 423.036 21.9669C423.825 22.2248 424.524 22.6013 425.132 23.0964C425.741 23.5864 426.236 24.1872 426.618 24.899C427.005 25.6107 427.252 26.4256 427.361 27.3436ZM443.742 27.3436H440.354C440.292 26.9052 440.165 26.5158 439.975 26.1754C439.784 25.8299 439.539 25.5359 439.24 25.2935C438.94 25.0511 438.595 24.8654 438.203 24.7365C437.816 24.6076 437.396 24.5431 436.942 24.5431C436.122 24.5431 435.408 24.7468 434.799 25.1542C434.19 25.5565 433.718 26.1445 433.383 26.9181C433.048 27.6866 432.88 28.6201 432.88 29.7187C432.88 30.8482 433.048 31.7971 433.383 32.5656C433.724 33.3341 434.198 33.9143 434.807 34.3063C435.415 34.6983 436.119 34.8942 436.919 34.8942C437.367 34.8942 437.783 34.8349 438.164 34.7163C438.551 34.5977 438.894 34.4249 439.193 34.198C439.492 33.9659 439.74 33.6848 439.936 33.3547C440.137 33.0246 440.276 32.6481 440.354 32.2252L443.742 32.2407C443.654 32.9679 443.435 33.6693 443.085 34.345C442.739 35.0154 442.272 35.6163 441.684 36.1475C441.101 36.6736 440.405 37.0913 439.595 37.4008C438.791 37.7051 437.881 37.8572 436.865 37.8572C435.451 37.8572 434.188 37.5375 433.074 36.8979C431.965 36.2584 431.088 35.3326 430.443 34.1206C429.804 32.9086 429.484 31.4413 429.484 29.7187C429.484 27.9909 429.809 26.521 430.459 25.309C431.109 24.097 431.991 23.1738 433.105 22.5394C434.219 21.8998 435.472 21.5801 436.865 21.5801C437.783 21.5801 438.634 21.709 439.418 21.9669C440.207 22.2248 440.905 22.6013 441.514 23.0964C442.123 23.5864 442.618 24.1872 442.999 24.899C443.386 25.6107 443.634 26.4256 443.742 27.3436ZM446.144 37.6406V21.7967H456.82V24.5586H449.494V28.3339H456.271V31.0957H449.494V34.8788H456.851V37.6406H446.144ZM468.079 26.3534C468.017 25.7293 467.751 25.2445 467.282 24.899C466.812 24.5534 466.175 24.3806 465.371 24.3806C464.824 24.3806 464.363 24.458 463.986 24.6127C463.61 24.7623 463.321 24.9712 463.12 25.2393C462.924 25.5075 462.826 25.8118 462.826 26.1522C462.815 26.4359 462.875 26.6835 463.004 26.8949C463.138 27.1064 463.321 27.2895 463.553 27.4442C463.785 27.5938 464.053 27.7253 464.357 27.8387C464.662 27.947 464.987 28.0399 465.332 28.1172L466.756 28.4576C467.447 28.6124 468.081 28.8187 468.659 29.0765C469.236 29.3344 469.737 29.6516 470.16 30.0281C470.583 30.4046 470.91 30.8482 471.142 31.3588C471.379 31.8694 471.501 32.4547 471.506 33.1149C471.501 34.0845 471.253 34.9252 470.763 35.6369C470.278 36.3435 469.577 36.8928 468.659 37.2848C467.746 37.6716 466.645 37.865 465.355 37.865C464.076 37.865 462.962 37.669 462.013 37.277C461.069 36.885 460.332 36.3048 459.801 35.5364C459.275 34.7627 458.999 33.806 458.973 32.6662H462.214C462.251 33.1974 462.403 33.641 462.671 33.9968C462.944 34.3475 463.308 34.6132 463.762 34.7937C464.221 34.969 464.739 35.0567 465.317 35.0567C465.884 35.0567 466.377 34.9742 466.794 34.8091C467.217 34.6441 467.545 34.4146 467.777 34.1206C468.009 33.8266 468.125 33.4888 468.125 33.1072C468.125 32.7513 468.019 32.4522 467.808 32.2097C467.602 31.9673 467.297 31.761 466.895 31.5908C466.498 31.4206 466.01 31.2659 465.433 31.1267L463.708 30.6934C462.372 30.3685 461.317 29.8605 460.543 29.1694C459.77 28.4783 459.386 27.5473 459.391 26.3766C459.386 25.4173 459.641 24.5792 460.157 23.8623C460.678 23.1454 461.392 22.5858 462.3 22.1835C463.207 21.7812 464.239 21.5801 465.394 21.5801C466.57 21.5801 467.596 21.7812 468.473 22.1835C469.355 22.5858 470.041 23.1454 470.531 23.8623C471.021 24.5792 471.274 25.4095 471.289 26.3534H468.079ZM482.354 26.3534C482.292 25.7293 482.026 25.2445 481.557 24.899C481.088 24.5534 480.451 24.3806 479.646 24.3806C479.1 24.3806 478.638 24.458 478.261 24.6127C477.885 24.7623 477.596 24.9712 477.395 25.2393C477.199 25.5075 477.101 25.8118 477.101 26.1522C477.091 26.4359 477.15 26.6835 477.279 26.8949C477.413 27.1064 477.596 27.2895 477.828 27.4442C478.06 27.5938 478.329 27.7253 478.633 27.8387C478.937 27.947 479.262 28.0399 479.608 28.1172L481.031 28.4576C481.722 28.6124 482.357 28.8187 482.934 29.0765C483.512 29.3344 484.012 29.6516 484.435 30.0281C484.858 30.4046 485.185 30.8482 485.418 31.3588C485.655 31.8694 485.776 32.4547 485.781 33.1149C485.776 34.0845 485.528 34.9252 485.038 35.6369C484.554 36.3435 483.852 36.8928 482.934 37.2848C482.021 37.6716 480.92 37.865 479.631 37.865C478.352 37.865 477.238 37.669 476.289 37.277C475.345 36.885 474.607 36.3048 474.076 35.5364C473.55 34.7627 473.274 33.806 473.248 32.6662H476.49C476.526 33.1974 476.678 33.641 476.946 33.9968C477.22 34.3475 477.583 34.6132 478.037 34.7937C478.496 34.969 479.014 35.0567 479.592 35.0567C480.159 35.0567 480.652 34.9742 481.07 34.8091C481.493 34.6441 481.82 34.4146 482.052 34.1206C482.284 33.8266 482.4 33.4888 482.4 33.1072C482.4 32.7513 482.295 32.4522 482.083 32.2097C481.877 31.9673 481.573 31.761 481.17 31.5908C480.773 31.4206 480.286 31.2659 479.708 31.1267L477.983 30.6934C476.647 30.3685 475.592 29.8605 474.819 29.1694C474.045 28.4783 473.661 27.5473 473.666 26.3766C473.661 25.4173 473.916 24.5792 474.432 23.8623C474.953 23.1454 475.667 22.5858 476.575 22.1835C477.483 21.7812 478.514 21.5801 479.669 21.5801C480.845 21.5801 481.872 21.7812 482.749 22.1835C483.63 22.5858 484.316 23.1454 484.806 23.8623C485.296 24.5792 485.549 25.4095 485.565 26.3534H482.354Z" fill="#EBECFA"/>
<path d="M771.26 50.0803H530.51V9.82031H771.25C782.13 9.82031 790.95 18.6403 790.95 29.5203V30.3903C790.96 41.2703 782.14 50.0803 771.26 50.0803Z" stroke="#EBECFA" stroke-width="2.0615" stroke-miterlimit="10"/>
<path d="M569.468 21.7967V37.6406H566.118V21.7967H569.468ZM586.203 27.3436H582.815C582.753 26.9052 582.626 26.5158 582.436 26.1754C582.245 25.8299 582 25.5359 581.701 25.2935C581.401 25.0511 581.056 24.8654 580.664 24.7365C580.277 24.6076 579.857 24.5431 579.403 24.5431C578.583 24.5431 577.869 24.7468 577.26 25.1542C576.651 25.5565 576.179 26.1445 575.844 26.9181C575.509 27.6866 575.341 28.6201 575.341 29.7187C575.341 30.8482 575.509 31.7971 575.844 32.5656C576.185 33.3341 576.659 33.9143 577.268 34.3063C577.876 34.6983 578.58 34.8942 579.38 34.8942C579.828 34.8942 580.244 34.8349 580.625 34.7163C581.012 34.5977 581.355 34.4249 581.654 34.198C581.953 33.9659 582.201 33.6848 582.397 33.3547C582.598 33.0246 582.737 32.6481 582.815 32.2252L586.203 32.2407C586.115 32.9679 585.896 33.6693 585.546 34.345C585.2 35.0154 584.733 35.6163 584.145 36.1475C583.562 36.6736 582.866 37.0913 582.056 37.4008C581.252 37.7051 580.342 37.8572 579.326 37.8572C577.912 37.8572 576.649 37.5375 575.535 36.8979C574.426 36.2584 573.549 35.3326 572.904 34.1206C572.265 32.9086 571.945 31.4413 571.945 29.7187C571.945 27.9909 572.27 26.521 572.92 25.309C573.57 24.097 574.452 23.1738 575.566 22.5394C576.68 21.8998 577.933 21.5801 579.326 21.5801C580.244 21.5801 581.095 21.709 581.879 21.9669C582.668 22.2248 583.366 22.6013 583.975 23.0964C584.584 23.5864 585.079 24.1872 585.46 24.899C585.847 25.6107 586.095 26.4256 586.203 27.3436ZM603.165 29.7187C603.165 31.4464 602.837 32.9163 602.182 34.1283C601.533 35.3404 600.646 36.2661 599.521 36.9057C598.402 37.5401 597.144 37.8572 595.746 37.8572C594.338 37.8572 593.074 37.5375 591.955 36.8979C590.836 36.2584 589.951 35.3326 589.302 34.1206C588.652 32.9086 588.327 31.4413 588.327 29.7187C588.327 27.9909 588.652 26.521 589.302 25.309C589.951 24.097 590.836 23.1738 591.955 22.5394C593.074 21.8998 594.338 21.5801 595.746 21.5801C597.144 21.5801 598.402 21.8998 599.521 22.5394C600.646 23.1738 601.533 24.097 602.182 25.309C602.837 26.521 603.165 27.9909 603.165 29.7187ZM599.769 29.7187C599.769 28.5995 599.601 27.6556 599.266 26.8872C598.936 26.1187 598.469 25.5359 597.866 25.1388C597.262 24.7416 596.556 24.5431 595.746 24.5431C594.936 24.5431 594.23 24.7416 593.626 25.1388C593.023 25.5359 592.553 26.1187 592.218 26.8872C591.888 27.6556 591.723 28.5995 591.723 29.7187C591.723 30.8378 591.888 31.7817 592.218 32.5501C592.553 33.3186 593.023 33.9014 593.626 34.2985C594.23 34.6957 594.936 34.8942 595.746 34.8942C596.556 34.8942 597.262 34.6957 597.866 34.2985C598.469 33.9014 598.936 33.3186 599.266 32.5501C599.601 31.7817 599.769 30.8378 599.769 29.7187ZM618.899 21.7967V37.6406H616.005L609.112 27.6685H608.996V37.6406H605.646V21.7967H608.586L615.425 31.761H615.564V21.7967H618.899ZM625.016 21.7967V37.6406H621.666V21.7967H625.016ZM641.752 27.3436H638.363C638.301 26.9052 638.175 26.5158 637.984 26.1754C637.793 25.8299 637.548 25.5359 637.249 25.2935C636.95 25.0511 636.604 24.8654 636.212 24.7365C635.826 24.6076 635.405 24.5431 634.951 24.5431C634.131 24.5431 633.417 24.7468 632.808 25.1542C632.2 25.5565 631.728 26.1445 631.393 26.9181C631.058 27.6866 630.89 28.6201 630.89 29.7187C630.89 30.8482 631.058 31.7971 631.393 32.5656C631.733 33.3341 632.208 33.9143 632.816 34.3063C633.425 34.6983 634.129 34.8942 634.928 34.8942C635.377 34.8942 635.792 34.8349 636.174 34.7163C636.561 34.5977 636.904 34.4249 637.203 34.198C637.502 33.9659 637.749 33.6848 637.945 33.3547C638.147 33.0246 638.286 32.6481 638.363 32.2252L641.752 32.2407C641.664 32.9679 641.445 33.6693 641.094 34.345C640.749 35.0154 640.282 35.6163 639.694 36.1475C639.111 36.6736 638.415 37.0913 637.605 37.4008C636.8 37.7051 635.89 37.8572 634.874 37.8572C633.461 37.8572 632.197 37.5375 631.083 36.8979C629.974 36.2584 629.098 35.3326 628.453 34.1206C627.813 32.9086 627.494 31.4413 627.494 29.7187C627.494 27.9909 627.819 26.521 628.468 25.309C629.118 24.097 630 23.1738 631.114 22.5394C632.228 21.8998 633.482 21.5801 634.874 21.5801C635.792 21.5801 636.643 21.709 637.427 21.9669C638.216 22.2248 638.915 22.6013 639.524 23.0964C640.132 23.5864 640.627 24.1872 641.009 24.899C641.396 25.6107 641.643 26.4256 641.752 27.3436ZM649.196 37.6406V21.7967H655.447C656.643 21.7967 657.665 22.0107 658.51 22.4388C659.361 22.8617 660.009 23.4626 660.452 24.2414C660.901 25.015 661.125 25.9253 661.125 26.9723C661.125 28.0244 660.898 28.9296 660.444 29.6877C659.991 30.4407 659.333 31.0184 658.472 31.4206C657.616 31.8229 656.579 32.0241 655.362 32.0241H651.176V29.3318H654.82C655.46 29.3318 655.991 29.2442 656.414 29.0688C656.837 28.8935 657.151 28.6304 657.358 28.2797C657.569 27.929 657.675 27.4932 657.675 26.9723C657.675 26.4462 657.569 26.0027 657.358 25.6416C657.151 25.2806 656.834 25.0073 656.406 24.8216C655.983 24.6308 655.449 24.5353 654.805 24.5353H652.546V37.6406H649.196ZM657.752 30.4304L661.69 37.6406H657.992L654.139 30.4304H657.752ZM673.279 21.7967H676.629V32.086C676.629 33.2413 676.353 34.2521 675.801 35.1186C675.254 35.9851 674.488 36.6607 673.503 37.1455C672.518 37.6252 671.371 37.865 670.061 37.865C668.746 37.865 667.595 37.6252 666.61 37.1455C665.625 36.6607 664.859 35.9851 664.313 35.1186C663.766 34.2521 663.493 33.2413 663.493 32.086V21.7967H666.842V31.7997C666.842 32.4032 666.974 32.9395 667.237 33.4089C667.505 33.8782 667.882 34.247 668.366 34.5152C668.851 34.7834 669.416 34.9174 670.061 34.9174C670.711 34.9174 671.275 34.7834 671.755 34.5152C672.24 34.247 672.614 33.8782 672.877 33.4089C673.145 32.9395 673.279 32.4032 673.279 31.7997V21.7967ZM692.637 21.7967V37.6406H689.744L682.851 27.6685H682.735V37.6406H679.385V21.7967H682.325L689.164 31.761H689.303V21.7967H692.637ZM698.971 37.6406L694.438 21.7967H698.097L700.72 32.8054H700.851L703.744 21.7967H706.878L709.763 32.8287H709.903L712.525 21.7967H716.184L711.651 37.6406H708.386L705.369 27.2817H705.245L702.236 37.6406H698.971ZM719.113 37.6406H715.523L720.993 21.7967H725.309L730.771 37.6406H727.182L723.213 25.4173H723.089L719.113 37.6406ZM718.888 31.4129H727.367V34.0278H718.888V31.4129ZM730.133 21.7967H733.885L737.498 28.6201H737.653L741.266 21.7967H745.018L739.239 32.0395V37.6406H735.912V32.0395L730.133 21.7967ZM755.442 26.3534C755.38 25.7293 755.115 25.2445 754.645 24.899C754.176 24.5534 753.539 24.3806 752.735 24.3806C752.188 24.3806 751.726 24.458 751.35 24.6127C750.973 24.7623 750.684 24.9712 750.483 25.2393C750.287 25.5075 750.189 25.8118 750.189 26.1522C750.179 26.4359 750.238 26.6835 750.367 26.8949C750.501 27.1064 750.684 27.2895 750.917 27.4442C751.149 27.5938 751.417 27.7253 751.721 27.8387C752.025 27.947 752.35 28.0399 752.696 28.1172L754.119 28.4576C754.81 28.6124 755.445 28.8187 756.022 29.0765C756.6 29.3344 757.1 29.6516 757.523 30.0281C757.946 30.4046 758.274 30.8482 758.506 31.3588C758.743 31.8694 758.864 32.4547 758.869 33.1149C758.864 34.0845 758.617 34.9252 758.127 35.6369C757.642 36.3435 756.941 36.8928 756.022 37.2848C755.11 37.6716 754.008 37.865 752.719 37.865C751.44 37.865 750.326 37.669 749.377 37.277C748.433 36.885 747.696 36.3048 747.164 35.5364C746.638 34.7627 746.362 33.806 746.337 32.6662H749.578C749.614 33.1974 749.766 33.641 750.035 33.9968C750.308 34.3475 750.672 34.6132 751.125 34.7937C751.584 34.969 752.103 35.0567 752.68 35.0567C753.248 35.0567 753.74 34.9742 754.158 34.8091C754.581 34.6441 754.908 34.4146 755.141 34.1206C755.373 33.8266 755.489 33.4888 755.489 33.1072C755.489 32.7513 755.383 32.4522 755.171 32.2097C754.965 31.9673 754.661 31.761 754.259 31.5908C753.861 31.4206 753.374 31.2659 752.796 31.1267L751.071 30.6934C749.735 30.3685 748.681 29.8605 747.907 29.1694C747.133 28.4783 746.749 27.5473 746.754 26.3766C746.749 25.4173 747.005 24.5792 747.52 23.8623C748.041 23.1454 748.756 22.5858 749.663 22.1835C750.571 21.7812 751.602 21.5801 752.758 21.5801C753.934 21.5801 754.96 21.7812 755.837 22.1835C756.719 22.5858 757.405 23.1454 757.895 23.8623C758.385 24.5792 758.637 25.4095 758.653 26.3534H755.442Z" fill="#EBECFA"/>
<path d="M49.7662 37.6406V21.7967H60.2566V24.5586H53.116V28.3339H59.5604V31.0957H53.116V37.6406H49.7662ZM62.5098 37.6406V21.7967H68.7608C69.9573 21.7967 70.9785 22.0107 71.8243 22.4388C72.6753 22.8617 73.3226 23.4626 73.7661 24.2414C74.2148 25.015 74.4392 25.9253 74.4392 26.9723C74.4392 28.0244 74.2123 28.9296 73.7584 29.6877C73.3045 30.4407 72.647 31.0184 71.7856 31.4206C70.9295 31.8229 69.8928 32.0241 68.6757 32.0241H64.4903V29.3318H68.1341C68.7736 29.3318 69.3049 29.2442 69.7278 29.0688C70.1507 28.8935 70.4653 28.6304 70.6716 28.2797C70.8831 27.929 70.9888 27.4932 70.9888 26.9723C70.9888 26.4462 70.8831 26.0027 70.6716 25.6416C70.4653 25.2806 70.1481 25.0073 69.7201 24.8216C69.2971 24.6308 68.7633 24.5353 68.1186 24.5353H65.8596V37.6406H62.5098ZM71.0662 30.4304L75.0039 37.6406H71.306L67.4533 30.4304H71.0662ZM76.8065 37.6406V21.7967H87.4826V24.5586H80.1563V28.3339H86.9333V31.0957H80.1563V34.8788H87.5135V37.6406H76.8065ZM90.1458 37.6406V21.7967H100.822V24.5586H93.4956V28.3339H100.273V31.0957H93.4956V34.8788H100.853V37.6406H90.1458ZM108.527 37.6406V21.7967H119.203V24.5586H111.877V28.3339H118.654V31.0957H111.877V34.8788H119.234V37.6406H108.527ZM135.119 21.7967V37.6406H132.225L125.332 27.6685H125.216V37.6406H121.867V21.7967H124.806L131.645 31.761H131.784V21.7967H135.119ZM137.283 24.5586V21.7967H150.295V24.5586H145.445V37.6406H142.134V24.5586H137.283ZM152.438 37.6406V21.7967H158.689C159.886 21.7967 160.907 22.0107 161.753 22.4388C162.604 22.8617 163.251 23.4626 163.695 24.2414C164.143 25.015 164.368 25.9253 164.368 26.9723C164.368 28.0244 164.141 28.9296 163.687 29.6877C163.233 30.4407 162.576 31.0184 161.714 31.4206C160.858 31.8229 159.821 32.0241 158.604 32.0241H154.419V29.3318H158.063C158.702 29.3318 159.233 29.2442 159.656 29.0688C160.079 28.8935 160.394 28.6304 160.6 28.2797C160.812 27.929 160.917 27.4932 160.917 26.9723C160.917 26.4462 160.812 26.0027 160.6 25.6416C160.394 25.2806 160.077 25.0073 159.649 24.8216C159.226 24.6308 158.692 24.5353 158.047 24.5353H155.788V37.6406H152.438ZM160.995 30.4304L164.933 37.6406H161.235L157.382 30.4304H160.995ZM165.147 21.7967H168.899L172.512 28.6201H172.667L176.28 21.7967H180.032L174.253 32.0395V37.6406H170.926V32.0395L165.147 21.7967Z" fill="#081116"/>
<path d="M584.53 101.182H276.51V60.9219H584.53C595.41 60.9219 604.23 69.7419 604.23 80.6219V81.4919C604.23 92.3619 595.41 101.182 584.53 101.182Z" fill="#EBECFA"/>
<path d="M266.29 101.184H33.8599C22.9799 101.184 14.1599 92.3641 14.1599 81.4841V80.6141C14.1599 69.7341 22.9799 60.9141 33.8599 60.9141H266.29V101.184Z" stroke="#EBECFA" stroke-width="2.0615" stroke-miterlimit="10"/>
<path d="M49.7638 88.7422V72.8983H60.4399V75.6601H53.1136V79.4354H59.8906V82.1973H53.1136V85.9803H60.4708V88.7422H49.7638ZM63.1031 88.7422V72.8983H69.354C70.5557 72.8983 71.5795 73.1278 72.4253 73.5868C73.2711 74.0407 73.9158 74.6724 74.3594 75.4822C74.8081 76.2868 75.0324 77.2151 75.0324 78.2672C75.0324 79.3194 74.8055 80.2477 74.3517 81.0523C73.8978 81.8569 73.2402 82.4835 72.3789 82.9322C71.5227 83.3809 70.4861 83.6053 69.2689 83.6053H65.2847V80.9208H68.7274C69.3721 80.9208 69.9033 80.8099 70.321 80.5881C70.744 80.3612 71.0586 80.0492 71.2649 79.652C71.4763 79.2498 71.5821 78.7882 71.5821 78.2672C71.5821 77.7412 71.4763 77.2822 71.2649 76.8902C71.0586 76.4931 70.744 76.1862 70.321 75.9696C69.8981 75.7478 69.3617 75.6369 68.7119 75.6369H66.4529V88.7422H63.1031ZM80.5581 72.8983V88.7422H77.2083V72.8983H80.5581ZM97.2936 78.4452H93.9051C93.8432 78.0068 93.7169 77.6174 93.5261 77.277C93.3352 76.9314 93.0902 76.6375 92.7911 76.3951C92.492 76.1527 92.1464 75.967 91.7544 75.8381C91.3676 75.7091 90.9473 75.6446 90.4934 75.6446C89.6734 75.6446 88.9591 75.8484 88.3505 76.2558C87.7419 76.6581 87.27 77.2461 86.9347 78.0197C86.5995 78.7882 86.4319 79.7217 86.4319 80.8202C86.4319 81.9497 86.5995 82.8987 86.9347 83.6672C87.2751 84.4357 87.7496 85.0159 88.3582 85.4078C88.9668 85.7998 89.6708 85.9958 90.4702 85.9958C90.9189 85.9958 91.3341 85.9365 91.7158 85.8179C92.1026 85.6992 92.4456 85.5265 92.7447 85.2995C93.0438 85.0674 93.2914 84.7864 93.4874 84.4563C93.6885 84.1262 93.8278 83.7497 93.9051 83.3268L97.2936 83.3423C97.206 84.0695 96.9868 84.7709 96.636 85.4465C96.2905 86.117 95.8237 86.7179 95.2358 87.2491C94.653 87.7752 93.9567 88.1929 93.147 88.5024C92.3424 88.8067 91.4321 88.9588 90.4161 88.9588C89.0029 88.9588 87.7393 88.639 86.6253 87.9995C85.5164 87.36 84.6396 86.4342 83.9949 85.2222C83.3554 84.0102 83.0356 82.5428 83.0356 80.8202C83.0356 79.0925 83.3606 77.6226 84.0104 76.4105C84.6603 75.1985 85.5422 74.2753 86.6562 73.6409C87.7703 73.0014 89.0235 72.6816 90.4161 72.6816C91.3341 72.6816 92.1851 72.8106 92.969 73.0685C93.7581 73.3263 94.457 73.7028 95.0656 74.198C95.6742 74.6879 96.1693 75.2888 96.5509 76.0005C96.9378 76.7123 97.1853 77.5271 97.2936 78.4452ZM115.244 78.0197C115.135 77.6432 114.983 77.3105 114.787 77.0217C114.591 76.7277 114.352 76.4802 114.068 76.279C113.789 76.0727 113.47 75.9154 113.109 75.8071C112.753 75.6988 112.358 75.6446 111.925 75.6446C111.115 75.6446 110.403 75.8458 109.79 76.2481C109.181 76.6504 108.707 77.2357 108.366 78.0042C108.026 78.7675 107.856 79.701 107.856 80.8048C107.856 81.9085 108.023 82.8471 108.358 83.6208C108.694 84.3944 109.168 84.9849 109.782 85.3924C110.396 85.7947 111.12 85.9958 111.956 85.9958C112.714 85.9958 113.361 85.8617 113.898 85.5935C114.439 85.3202 114.852 84.9359 115.135 84.4408C115.424 83.9457 115.569 83.3603 115.569 82.6847L116.249 82.7852H112.165V80.2632H118.795V82.2592C118.795 83.6517 118.501 84.8483 117.913 85.8488C117.325 86.8442 116.515 87.6127 115.484 88.1542C114.452 88.6906 113.271 88.9588 111.94 88.9588C110.455 88.9588 109.15 88.6313 108.026 87.9763C106.901 87.3161 106.025 86.38 105.395 85.168C104.771 83.9508 104.459 82.5067 104.459 80.8357C104.459 79.5515 104.645 78.4065 105.016 77.4008C105.393 76.3899 105.919 75.5338 106.595 74.8323C107.27 74.1309 108.057 73.5971 108.954 73.2309C109.852 72.8647 110.824 72.6816 111.871 72.6816C112.768 72.6816 113.604 72.8132 114.377 73.0762C115.151 73.3341 115.837 73.7003 116.435 74.1747C117.039 74.6492 117.531 75.214 117.913 75.869C118.294 76.5188 118.539 77.2357 118.648 78.0197H115.244ZM124.661 72.8983V88.7422H121.311V72.8983H124.661ZM130.279 72.8983L134.109 84.9359H134.256L138.093 72.8983H141.806L136.344 88.7422H132.028L126.558 72.8983H130.279ZM143.713 88.7422V72.8983H154.389V75.6601H147.063V79.4354H153.84V82.1973H147.063V85.9803H154.42V88.7422H143.713ZM159.784 88.7422H156.194L161.663 72.8983H165.98L171.442 88.7422H167.852L163.884 76.5188H163.76L159.784 88.7422ZM159.559 82.5145H168.038V85.1293H159.559V82.5145ZM175.32 88.7422L170.786 72.8983H174.446L177.068 83.907H177.2L180.093 72.8983H183.226L186.112 83.9302H186.251L188.874 72.8983H192.533L188 88.7422H184.735L181.718 78.3833H181.594L178.585 88.7422H175.32ZM195.461 88.7422H191.872L197.341 72.8983H201.658L207.12 88.7422H203.53L199.562 76.5188H199.438L195.461 88.7422ZM195.237 82.5145H203.716V85.1293H195.237V82.5145ZM206.482 72.8983H210.234L213.847 79.7217H214.001L217.614 72.8983H221.366L215.587 83.1411V88.7422H212.261V83.1411L206.482 72.8983ZM231.791 77.4549C231.729 76.8309 231.464 76.3461 230.994 76.0005C230.525 75.655 229.888 75.4822 229.083 75.4822C228.537 75.4822 228.075 75.5595 227.699 75.7143C227.322 75.8638 227.033 76.0727 226.832 76.3409C226.636 76.6091 226.538 76.9134 226.538 77.2538C226.528 77.5375 226.587 77.785 226.716 77.9965C226.85 78.2079 227.033 78.391 227.265 78.5458C227.497 78.6953 227.766 78.8268 228.07 78.9403C228.374 79.0486 228.699 79.1414 229.045 79.2188L230.468 79.5592C231.159 79.7139 231.794 79.9202 232.371 80.1781C232.949 80.436 233.449 80.7532 233.872 81.1297C234.295 81.5062 234.622 81.9497 234.855 82.4603C235.092 82.9709 235.213 83.5563 235.218 84.2165C235.213 85.1861 234.965 86.0267 234.475 86.7385C233.991 87.4451 233.289 87.9943 232.371 88.3863C231.458 88.7731 230.357 88.9665 229.068 88.9665C227.789 88.9665 226.675 88.7706 225.726 88.3786C224.782 87.9866 224.044 87.4064 223.513 86.6379C222.987 85.8643 222.711 84.9076 222.685 83.7678H225.927C225.963 84.299 226.115 84.7425 226.383 85.0984C226.657 85.4491 227.02 85.7147 227.474 85.8952C227.933 86.0706 228.452 86.1583 229.029 86.1583C229.596 86.1583 230.089 86.0757 230.507 85.9107C230.93 85.7457 231.257 85.5162 231.489 85.2222C231.721 84.9282 231.837 84.5904 231.837 84.2087C231.837 83.8529 231.732 83.5537 231.52 83.3113C231.314 83.0689 231.01 82.8626 230.607 82.6924C230.21 82.5222 229.723 82.3675 229.145 82.2282L227.42 81.795C226.084 81.4701 225.029 80.9621 224.256 80.2709C223.482 79.5798 223.098 78.6489 223.103 77.4781C223.098 76.5188 223.353 75.6807 223.869 74.9639C224.39 74.247 225.104 73.6874 226.012 73.2851C226.92 72.8828 227.951 72.6816 229.107 72.6816C230.282 72.6816 231.309 72.8828 232.186 73.2851C233.067 73.6874 233.753 74.247 234.243 74.9639C234.733 75.6807 234.986 76.5111 235.002 77.4549H231.791Z" fill="#EBECFA"/>
<path d="M315.462 72.8983V88.7422H312.112V72.8983H315.462ZM331.471 72.8983V88.7422H328.577L321.684 78.7701H321.568V88.7422H318.218V72.8983H321.158L327.997 82.8626H328.136V72.8983H331.471ZM342.833 77.4549C342.771 76.8309 342.506 76.3461 342.036 76.0005C341.567 75.655 340.93 75.4822 340.126 75.4822C339.579 75.4822 339.117 75.5595 338.741 75.7143C338.364 75.8638 338.075 76.0727 337.874 76.3409C337.678 76.6091 337.58 76.9134 337.58 77.2538C337.57 77.5375 337.629 77.785 337.758 77.9965C337.892 78.2079 338.075 78.391 338.307 78.5458C338.54 78.6953 338.808 78.8268 339.112 78.9403C339.416 79.0486 339.741 79.1414 340.087 79.2188L341.51 79.5592C342.201 79.7139 342.836 79.9202 343.413 80.1781C343.991 80.436 344.491 80.7532 344.914 81.1297C345.337 81.5062 345.665 81.9497 345.897 82.4603C346.134 82.9709 346.255 83.5563 346.26 84.2165C346.255 85.1861 346.008 86.0267 345.518 86.7385C345.033 87.4451 344.331 87.9943 343.413 88.3863C342.501 88.7731 341.399 88.9665 340.11 88.9665C338.831 88.9665 337.717 88.7706 336.768 88.3786C335.824 87.9866 335.087 87.4064 334.555 86.6379C334.029 85.8643 333.753 84.9076 333.728 83.7678H336.969C337.005 84.299 337.157 84.7425 337.426 85.0984C337.699 85.4491 338.063 85.7147 338.516 85.8952C338.975 86.0706 339.494 86.1583 340.071 86.1583C340.639 86.1583 341.131 86.0757 341.549 85.9107C341.972 85.7457 342.299 85.5162 342.532 85.2222C342.764 84.9282 342.88 84.5904 342.88 84.2087C342.88 83.8529 342.774 83.5537 342.562 83.3113C342.356 83.0689 342.052 82.8626 341.65 82.6924C341.252 82.5222 340.765 82.3675 340.187 82.2282L338.462 81.795C337.126 81.4701 336.072 80.9621 335.298 80.2709C334.524 79.5798 334.14 78.6489 334.145 77.4781C334.14 76.5188 334.396 75.6807 334.911 74.9639C335.432 74.247 336.146 73.6874 337.054 73.2851C337.962 72.8828 338.993 72.6816 340.149 72.6816C341.325 72.6816 342.351 72.8828 343.228 73.2851C344.11 73.6874 344.796 74.247 345.286 74.9639C345.776 75.6807 346.028 76.5111 346.044 77.4549H342.833ZM351.863 72.8983V88.7422H348.514V72.8983H351.863ZM360.236 88.7422H354.619V72.8983H360.282C361.876 72.8983 363.248 73.2154 364.398 73.8498C365.548 74.479 366.433 75.3842 367.052 76.5653C367.676 77.7463 367.988 79.1595 367.988 80.8048C367.988 82.4552 367.676 83.8735 367.052 85.0597C366.433 86.2459 365.543 87.1562 364.383 87.7906C363.227 88.425 361.845 88.7422 360.236 88.7422ZM357.969 85.872H360.097C361.087 85.872 361.92 85.6967 362.596 85.346C363.276 84.9901 363.787 84.4408 364.127 83.6981C364.473 82.9503 364.646 81.9858 364.646 80.8048C364.646 79.634 364.473 78.6773 364.127 77.9346C363.787 77.1919 363.279 76.6452 362.603 76.2945C361.928 75.9438 361.095 75.7684 360.105 75.7684H357.969V85.872ZM370.469 88.7422V72.8983H381.145V75.6601H373.819V79.4354H380.596V82.1973H373.819V85.9803H381.176V88.7422H370.469ZM383.809 88.7422V72.8983H390.059C391.256 72.8983 392.277 73.1123 393.123 73.5404C393.974 73.9633 394.621 74.5641 395.065 75.3429C395.514 76.1166 395.738 77.0269 395.738 78.0738C395.738 79.126 395.511 80.0311 395.057 80.7893C394.603 81.5423 393.946 82.1199 393.084 82.5222C392.228 82.9245 391.192 83.1256 389.974 83.1256H385.789V80.4334H389.433C390.072 80.4334 390.604 80.3457 391.026 80.1704C391.449 79.995 391.764 79.732 391.97 79.3813C392.182 79.0306 392.287 78.5947 392.287 78.0738C392.287 77.5478 392.182 77.1042 391.97 76.7432C391.764 76.3822 391.447 76.1088 391.019 75.9232C390.596 75.7323 390.062 75.6369 389.417 75.6369H387.158V88.7422H383.809ZM392.365 81.532L396.303 88.7422H392.605L388.752 81.532H392.365ZM417.127 78.4452H413.738C413.676 78.0068 413.55 77.6174 413.359 77.277C413.168 76.9314 412.923 76.6375 412.624 76.3951C412.325 76.1527 411.98 75.967 411.588 75.8381C411.201 75.7091 410.78 75.6446 410.327 75.6446C409.507 75.6446 408.792 75.8484 408.184 76.2558C407.575 76.6581 407.103 77.2461 406.768 78.0197C406.433 78.7882 406.265 79.7217 406.265 80.8202C406.265 81.9497 406.433 82.8987 406.768 83.6672C407.108 84.4357 407.583 85.0159 408.191 85.4078C408.8 85.7998 409.504 85.9958 410.303 85.9958C410.752 85.9958 411.167 85.9365 411.549 85.8179C411.936 85.6992 412.279 85.5265 412.578 85.2995C412.877 85.0674 413.125 84.7864 413.321 84.4563C413.522 84.1262 413.661 83.7497 413.738 83.3268L417.127 83.3423C417.039 84.0695 416.82 84.7709 416.469 85.4465C416.124 86.117 415.657 86.7179 415.069 87.2491C414.486 87.7752 413.79 88.1929 412.98 88.5024C412.176 88.8067 411.265 88.9588 410.249 88.9588C408.836 88.9588 407.572 88.639 406.458 87.9995C405.35 87.36 404.473 86.4342 403.828 85.2222C403.189 84.0102 402.869 82.5428 402.869 80.8202C402.869 79.0925 403.194 77.6226 403.844 76.4105C404.493 75.1985 405.375 74.2753 406.489 73.6409C407.603 73.0014 408.857 72.6816 410.249 72.6816C411.167 72.6816 412.018 72.8106 412.802 73.0685C413.591 73.3263 414.29 73.7028 414.899 74.198C415.507 74.6879 416.002 75.2888 416.384 76.0005C416.771 76.7123 417.018 77.5271 417.127 78.4452ZM421.962 88.7422H418.372L423.842 72.8983H428.159L433.621 88.7422H430.031L426.062 76.5188H425.938L421.962 88.7422ZM421.738 82.5145H430.217V85.1293H421.738V82.5145ZM435.528 88.7422V72.8983H441.778C442.975 72.8983 443.996 73.1123 444.842 73.5404C445.693 73.9633 446.34 74.5641 446.784 75.3429C447.233 76.1166 447.457 77.0269 447.457 78.0738C447.457 79.126 447.23 80.0311 446.776 80.7893C446.322 81.5423 445.665 82.1199 444.803 82.5222C443.947 82.9245 442.911 83.1256 441.693 83.1256H437.508V80.4334H441.152C441.791 80.4334 442.323 80.3457 442.746 80.1704C443.168 79.995 443.483 79.732 443.689 79.3813C443.901 79.0306 444.007 78.5947 444.007 78.0738C444.007 77.5478 443.901 77.1042 443.689 76.7432C443.483 76.3822 443.166 76.1088 442.738 75.9232C442.315 75.7323 441.781 75.6369 441.136 75.6369H438.877V88.7422H435.528ZM444.084 81.532L448.022 88.7422H444.324L440.471 81.532H444.084ZM449.824 88.7422V72.8983H460.5V75.6601H453.174V79.4354H459.951V82.1973H453.174V85.9803H460.531V88.7422H449.824ZM463.164 88.7422V72.8983H473.84V75.6601H466.513V79.4354H473.29V82.1973H466.513V85.9803H473.871V88.7422H463.164ZM476.503 88.7422V72.8983H482.754C483.95 72.8983 484.971 73.1123 485.817 73.5404C486.668 73.9633 487.316 74.5641 487.759 75.3429C488.208 76.1166 488.432 77.0269 488.432 78.0738C488.432 79.126 488.205 80.0311 487.751 80.7893C487.298 81.5423 486.64 82.1199 485.779 82.5222C484.922 82.9245 483.886 83.1256 482.669 83.1256H478.483V80.4334H482.127C482.767 80.4334 483.298 80.3457 483.721 80.1704C484.144 79.995 484.458 79.732 484.665 79.3813C484.876 79.0306 484.982 78.5947 484.982 78.0738C484.982 77.5478 484.876 77.1042 484.665 76.7432C484.458 76.3822 484.141 76.1088 483.713 75.9232C483.29 75.7323 482.756 75.6369 482.112 75.6369H479.853V88.7422H476.503ZM485.059 81.532L488.997 88.7422H485.299L481.446 81.532H485.059ZM495.238 75.6601V72.8983H508.251V75.6601H503.4V88.7422H500.089V75.6601H495.238ZM511.188 88.7422H507.599L513.068 72.8983H517.385L522.847 88.7422H519.257L515.289 76.5188H515.165L511.188 88.7422ZM510.964 82.5145H519.443V85.1293H510.964V82.5145ZM524.754 88.7422V72.8983H528.104V85.9803H534.896V88.7422H524.754ZM537.115 88.7422V72.8983H540.465V79.8841H540.673L546.375 72.8983H550.39L544.511 79.9924L550.46 88.7422H546.452L542.112 82.2282L540.465 84.2397V88.7422H537.115ZM560.602 77.4549C560.54 76.8309 560.275 76.3461 559.805 76.0005C559.336 75.655 558.699 75.4822 557.894 75.4822C557.348 75.4822 556.886 75.5595 556.51 75.7143C556.133 75.8638 555.844 76.0727 555.643 76.3409C555.447 76.6091 555.349 76.9134 555.349 77.2538C555.339 77.5375 555.398 77.785 555.527 77.9965C555.661 78.2079 555.844 78.391 556.076 78.5458C556.308 78.6953 556.577 78.8268 556.881 78.9403C557.185 79.0486 557.51 79.1414 557.856 79.2188L559.279 79.5592C559.97 79.7139 560.605 79.9202 561.182 80.1781C561.76 80.436 562.26 80.7532 562.683 81.1297C563.106 81.5062 563.434 81.9497 563.666 82.4603C563.903 82.9709 564.024 83.5563 564.029 84.2165C564.024 85.1861 563.777 86.0267 563.287 86.7385C562.802 87.4451 562.1 87.9943 561.182 88.3863C560.269 88.7731 559.168 88.9665 557.879 88.9665C556.6 88.9665 555.486 88.7706 554.537 88.3786C553.593 87.9866 552.856 87.4064 552.324 86.6379C551.798 85.8643 551.522 84.9076 551.497 83.7678H554.738C554.774 84.299 554.926 84.7425 555.194 85.0984C555.468 85.4491 555.831 85.7147 556.285 85.8952C556.744 86.0706 557.263 86.1583 557.84 86.1583C558.408 86.1583 558.9 86.0757 559.318 85.9107C559.741 85.7457 560.068 85.5162 560.3 85.2222C560.533 84.9282 560.649 84.5904 560.649 84.2087C560.649 83.8529 560.543 83.5537 560.331 83.3113C560.125 83.0689 559.821 82.8626 559.418 82.6924C559.021 82.5222 558.534 82.3675 557.956 82.2282L556.231 81.795C554.895 81.4701 553.841 80.9621 553.067 80.2709C552.293 79.5798 551.909 78.6489 551.914 77.4781C551.909 76.5188 552.164 75.6807 552.68 74.9639C553.201 74.247 553.915 73.6874 554.823 73.2851C555.731 72.8828 556.762 72.6816 557.918 72.6816C559.094 72.6816 560.12 72.8828 560.997 73.2851C561.879 73.6874 562.565 74.247 563.055 74.9639C563.545 75.6807 563.797 76.5111 563.813 77.4549H560.602Z" fill="#081116"/>
</svg>
